<?xml version="1.0" encoding="UTF-8"?>
<svg id="Layer_1" data-name="Layer 1" xmlns="http://www.w3.org/2000/svg" viewBox="0 0 2870.69 3513.17">
  <defs>
    <style>
      .cls-1, .cls-2 {
        fill: #000;
      }

      .cls-1, .cls-3 {
        stroke-width: 0px;
      }

      .cls-2 {
        font-family: MyriadPro-Regular, 'Myriad Pro';
        font-size: 12px;
      }

      .cls-3 {
        fill: #fff;
      }
    </style>
  </defs>
  <path class="cls-1" d="M828.91,3452.43c-44.67-1.4-89.93-4.62-133.56-13.63-50.76-10.49-93.73-38.1-117.18-86.46-17.69-36.47-22.65-76.61-18.73-117.25,2.41-24.98,5.89-49.85,8.79-74.78,6.51-56.07-14.26-99.62-59.57-132.74-14.32-10.47-27.75-22.59-39.79-35.61-17.11-18.5-28.35-40.21-26.83-66.61,1.61-27.91,5.05-55.87,4.37-83.73-.73-30.16-1.57-61.19-8.99-90.14-13.35-52.09-14.52-105.05-18.25-157.89-3.11-44.13-5.02-46.13-49.33-52.68-47.69-7.06-95.44-14.74-139.07-37.38-36.64-19.01-69.35-43.69-98.68-72.34-7.38-7.21-11.11-20.73-11.87-31.68-2.63-38.01-2.92-76.18-4.65-114.26-2.93-64.56-2.06-129.66-10.51-193.51-10.3-77.83-27.06-154.93-43.89-231.72-14.34-65.42-33.93-129.68-49.02-194.96-16.86-72.9-14.69-146.14-2.59-220.03,15.59-95.21,27.26-191.07,40.89-286.6,12.46-87.36,24.27-174.83,38.41-261.92,6.48-39.87,14.92-79.94,27.83-118.11,15.06-44.5,34.75-87.6,54.64-130.27,38.26-82.05,94.93-150.95,161.37-211.24,42.73-38.78,88.82-74.05,134.97-108.83,54.71-41.23,115.71-72.48,175.67-105.27,30.39-16.62,59.71-35.18,89.9-52.19,74.29-41.87,147.92-85.4,232.04-105.56,54.31-13.02,108.84-25.15,163.26-37.73,21.15-4.89,44.44-5.88,62.9-15.81,31.4-16.88,63.73-10.09,95.44-10.4,111.04-1.09,222.11-.15,333.16.55,6.72.04,13.34,4.93,20.12,7.22,9.06,3.06,18.05,6.69,27.38,8.51,68.21,13.28,136.79,24.78,204.66,39.55,72.21,15.71,142.76,38.04,210.26,68.19,61.03,27.26,120.89,57.19,175.82,96.01,33.42,23.62,68.65,44.78,101.06,69.67,29.74,22.84,57.07,48.89,84.88,74.16,9.46,8.59,17.96,14.93,31.97,11.1,12.46-3.41,19.51,6.41,25.24,15.44,27.43,43.16,60.69,81.1,100.64,113.02,12.79,10.22,27.84,18.01,39.19,29.54,19.83,20.14,39.86,40.78,55.66,64.02,21.31,31.35,39.23,65.08,57.54,98.38,9.03,16.42,16.67,33.79,23.18,51.37,26.86,72.51,46.36,146.69,57.85,223.52,29.81,199.27,38.72,399.46,33.95,600.62-2.25,94.81-13.03,188.79-26.36,282.4-7.18,50.41-20.5,100.04-32.68,149.63-8.95,36.44-18.15,73.14-31.59,108.06-14.66,38.09-31.85,75.7-52.53,110.82-18.92,32.14-43.39,61.13-66.61,90.55-9.15,11.59-22.85,19.56-32.24,31.01-18.85,22.99-35.45,47.82-54.26,70.85-32.31,39.57-65.45,78.47-98.56,117.38-13.44,15.8-28.15,30.53-41.49,46.41-11.87,14.14-26.85,17.72-44.12,16.07-16.81-1.6-33.61-3.51-50.45-4.62-59.76-3.93-93.99-34.11-104.82-92.92-.87-4.74-1.31-9.56-1.95-14.34-1.32-9.89-5.8-19.92-16.09-18.54-6.26.84-15.17,10.18-16.25,16.79-7.39,45.2-14.47,90.54-18.87,136.11-6.87,71.03-8.18,142.75-18.19,213.27-8.23,58.01-25.14,114.85-49.58,168.83-10.32,22.79-18.7,46.55-30.18,68.72-24.62,47.51-54.64,90.54-101.91,119.29-38.83,23.62-80.84,37.67-124.65,48.16-27.53,6.59-33.78,16.7-34.3,45.33-.42,23.17-80.84,68.24-218.42,107.04-54.81,15.46-133.15,34.1-197.03,43.58-253.48,37.6-545.72,21.58-577.44,20.58ZM2257.19,384.6c-1.37,1.55-2.74,3.1-4.12,4.65,2.6,8.06,6.03,15.96,7.54,24.22,1.27,6.95.29,14.3.3,21.48-6.74-1.18-14.59-.57-20.01-3.9-13.89-8.54-27.27-18.14-39.81-28.57-22.82-18.99-42.71-40.98-54.02-68.73-9.32-22.87-15.64-25.43-34.96-9.36-18.01,14.98-26.65,11.08-32.03-12.08-2.51-10.8-7.06-23.03-14.75-30.33-17.83-16.94-41.7-21.28-65.53-23.09-3.7-.28-10.36,3.7-11.07,6.77-1.13,4.93-.26,12.79,3.04,15.72,6.2,5.52,15.01,7.99,22.25,12.51,8.2,5.13,18.34,9.51,23.25,17.06,10.64,16.39,19.19,34.27,27.32,52.12,12.76,28.02,24.84,56.38,36.34,84.94,2.74,6.81,3.42,15.15,2.59,22.5-1.03,9.17-7.64,14.11-17.38,13.79-15.71-.52-42.6-19.77-47.97-34.79-6.49-18.16-12.76-36.4-18.92-54.68-7.43-22.04-21.99-39.2-40.99-50.93-22.79-14.07-37-33.75-50.33-56.2-20.28-34.15-21.73-41.97-66.43-32.46-22.18,4.72-44.49,8.94-66.87,12.62-17.25,2.84-30.95-2.27-43.79-15.9-15.02-15.95-32.78-29.78-50.99-42.12-16.98-11.51-33.85-7.76-48.31,7.02-3.7,3.79-7.15,7.85-10.43,12.02-10.71,13.63-23.8,20.92-41.94,21.72-93.07,4.08-186.09,9.09-279.13,13.76-21.23,1.06-28.09,8.08-28.58,29.38-.6,26.51-10.41,35.55-37.02,33.9-4.32-.27-8.61-1.11-12.9-1.81-43.89-7.11-87.96-14.68-132.41-7.05-42.55,7.3-82.66,20.92-109.23,58.32-6.55,9.22-12.96,19.83-15.12,30.66-6.42,32.12-12.46,64.5-15.4,97.07-4.64,51.49-8.01,102.98-25,152.4-3.13,9.11-6.43,17.78-18,17.59-11.98-.2-16.83-8.64-18.48-18.83-2.07-12.83-3.43-25.82-4.45-38.79-2.61-33.2-4.68-66.44-7.37-99.63-.89-11.02-1.41-23.46-16.3-25.15-8.55-.97-17.71-1.41-25.89.69-6.24,1.6-13.31,6.53-16.21,11.99-1.64,3.09,4,10.51,7.14,15.49,2.27,3.61,6.93,5.92,8.57,9.66,3.11,7.09,8.48,16.44,6.08,21.79-2.41,5.35-12.94,7.56-20.28,10.09-18.58,6.41-37.73,11.35-55.82,18.86-4.95,2.05-6.98,11.12-10.36,16.97,6.03,2.66,12.03,7.43,18.09,7.51,10.47.14,20.96-3.48,31.48-3.79,4.48-.13,11.14,3.04,13.05,6.68,1.79,3.43-.94,9.59-2.52,14.27-.87,2.58-3.41,4.61-5.28,6.82-18.87,22.28-19.86,29.7-6.47,55.71,4.89,9.49,4.26,18.03-3.97,24.71-6.62,5.38-14.16,9.68-21.51,14.09-26.32,15.77-53.21,30.65-78.86,47.45-9.39,6.15-16.49,16.25-23.41,25.46-2.59,3.44-1.71,9.48-2.41,14.33,4.49-.21,9.72,1,13.32-.9,10.2-5.39,19.74-12.02,29.51-18.22,7.73-4.9,15.09-10.56,23.27-14.51,3.66-1.77,10.31-1.9,13.09.34,2.89,2.33,4.03,8.55,3.58,12.83-.47,4.5-2.79,9.6-5.92,12.89-10.94,11.48-22.25,22.68-34.06,33.25-10.75,9.62-23.18,17.46-33.37,27.59-11.57,11.51-7.31,23.55,8.74,27.52,8.42,2.08,17.6,2.08,25.36,5.49,6.4,2.81,14.58,8.56,15.75,14.29,1.11,5.44-4.81,13.44-9.47,18.69-6.97,7.85-16.97,13.25-23.02,21.61-5.23,7.23-6.75,17.15-9.91,25.88,7.77,1.03,15.66,3.4,23.29,2.77,12.78-1.05,18.58,4.13,17.7,16.32-1.23,16.82-3.48,33.56-4.91,50.37-.71,8.31-4.07,18.81,8.16,21.44,10.98,2.36,17.92-3.95,22.45-13.97,2.72-6.01,6.06-12.8,11.14-16.35,4.8-3.36,13.86-5.76,18.04-3.36,3.82,2.2,5.28,11.53,4.78,17.47-.68,8-5.02,15.63-6.42,23.65-5.96,34.21-11.25,68.55-17.09,102.78-5.93,34.71-12.76,69.27-17.94,104.08-1.14,7.67,1.15,17.43,5.53,23.65,2.06,2.93,13.85,1.82,19.43-1.01,22.49-11.4,33.96-7.05,42.4,16.86,3.99,11.29,9.75,21.94,14.29,33.05,7.55,18.5,13.8,37.43,8.24,57.66-8.54,31.1-17.25,62.18-26.66,93.02-17.59,57.61-36.06,114.94-53.53,172.58-11.89,39.22-22.5,78.82-34.11,118.13-4.08,13.81-9,27.41-14.32,40.8-4.38,11.01-9.77,22.2-.98,32.69,8.67,10.34,20.8,7.21,32.43,5.53,31.26-4.52,56.43-21.32,81.01-39.36,31.42-23.07,41.1-21.93,69.86,4.61,58.92,54.37,109.04,116.22,151.85,183.52,22.85,35.92,40.73,75.2,58.72,113.96,11.3,24.34,19.94,29.84,45.81,20.22,2.71-1.01,5.43-2.1,8.24-2.71,19.95-4.36,30.24,2.09,31.29,22.34,1.5,28.87,3.11,57.97,1.21,86.74-6.98,105.93-16.51,211.7-22.58,317.67-1.91,33.39,1.99,67.53,7.05,100.75,3.76,24.65,30.73,34.46,51.89,21.4,11.43-7.06,23.45-14.57,31.82-24.68,5.94-7.17,9.66-19.5,8.39-28.7-4.47-32.37-10.84-64.53-17.89-96.47-3.74-16.93,1.72-28.17,13.87-39.52,7.67-7.17,14.85-17.68,16.75-27.73,12.82-67.75,17.95-135.83,2.83-204.1-1.44-6.51-2.67-13.53-1.7-19.97.76-5.03,4.17-12.13,8.11-13.54,4.12-1.47,11.01,1.69,15.4,4.71,13.64,9.37,11.9,23.78,11.65,38.01-.6,34.69-.88,69.4-.42,104.09.4,30.4,3.07,60.79,2.82,91.17-.42,51.15-2.55,102.28-3.59,153.43-.53,25.89,11.58,34.75,35.74,26.24,27.28-9.61,54.42-19.65,81.46-29.91,10.49-3.98,21.52-8.65,20.44-22.81-1.04-13.61-12.06-17.52-22.87-20.94-3.64-1.15-7.6-1.26-11.37-2.08-7.06-1.54-14.36-2.54-21.07-5.06-13.91-5.23-23.9-25.41-18.86-39.91,5.93-17.03,17.79-6.62,27.7-4.52,13.2,2.8,20.72-3.65,21.7-17.62.71-10.07,1.79-20.17,3.6-30.09,6.3-34.65,13.54-69.13,19.35-103.86,5.11-30.54,8.47-61.06,33-84.41,4.7-4.47,6.38-17.89,3.11-23.43-3.76-6.36-14.36-11.37-22.38-12-22.55-1.78-43.44,18.04-48.54,43.52-4.26,21.29-7.71,42.77-13.01,63.79-1.61,6.37-8.2,11.49-12.51,17.18-2.33-5.84-5.04-11.58-6.83-17.58-.93-3.12-.05-6.73-.33-10.09-2.73-32.2-4.3-64.57-8.59-96.56-9.49-70.95-28.27-139.82-50.15-207.83-13.82-42.97-25.02-87.07-60.66-119.5-13.79-12.55-8.64-27.32,13.12-49.12,11.2-11.23,18.27-10.62,33.67,1.74,15.02,12.06,30.04,24.19,45.81,35.22,31.53,22.05,63.87,42.94,95.27,65.16,15.17,10.73,30.14,17.06,48.4,9.03,7.95-3.5,16.07-6.59,24.07-9.98,10.79-4.58,20.33-2.26,23.53,8.96,7.64,26.8,26.16,37.93,52.01,43.3,45.76,9.51,90.59,25.02,136.72,30.81,91.42,11.49,182.99,7.62,273.92-9.28,18.03-3.35,32.13-10.24,45.42-22.66,8.63-8.06,20.61-13.61,32.05-17.35,17.36-5.67,23.57-13.1,22.9-31.29-.84-23.08.1-46.25-1.52-69.25-.89-12.65-2.71-26.67-8.94-37.21-13.68-23.17-30.23-44.69-45.99-66.6-26.41-36.72-43.53-76.38-37.96-122.75,6.08-50.59-7.72-96.42-31.77-140.02-14.88-26.97-30.83-53.4-44.61-80.92-9.23-18.43-17.92-37.76-22.62-57.69-16.57-70.28,9.77-126.49,61.12-173.26,36.31-33.07,72.81-65.93,109.44-98.65,5.34-4.77,11.53-8.82,17.85-12.24,10.2-5.52,17.04-.92,16.13,10.87-.36,4.66-2.09,9.43-4.16,13.69-9.67,19.93-19.31,39.9-29.65,59.49-17.52,33.17-35.11,66.31-53.61,98.94-6.54,11.53-6.74,21.05,2.94,29.79,9.89,8.93,15.58,19.07,15.52,32.84-.01,3.08,5.68,8.78,8.87,8.87,22.34.61,29.52,7.9,27.83,29.63-3.52,45.38-9.72,90.27-26.31,133-7.42,19.1-3.94,34.7,11.3,48.25,9.7,8.62,13.19,19.26,10.96,32.58-7.29,43.59-7.05,43.77,34.66,56.7,19.41,6.02,31.29,18.54,34.64,38.58,4.49,26.85,8.38,29.93,35.06,26.36,15.2-2.04,24.01,4.01,27.5,18.75,1.11,4.68,2.06,9.46,3.78,13.92,7.32,18.96,16.87,22.22,36.21,17.39,44.86-11.21,89.97-21.51,135.19-31.23,34.15-7.34,72.65-29.05,68.84-73.6-2.11-24.69,11.62-45.23,26.17-62.72,23.67-28.46,50.23-54.55,76.22-81.01,12.92-13.16,19.46-27.33,18.94-46.38-1.12-40.93-.49-81.92-.14-122.88.17-19.96,7.74-36.42,24.67-48.19,15.37-10.68,18.58-26.04,15.62-43.59-2.16-12.84-4.12-25.72-5.7-38.64-2.74-22.43,4.91-41.8,18.41-59.24,8.26-10.67,17.76-16.31,31.01-7.71,10.15,6.59,12.57-.29,11.21-8.09-1.89-10.85-5.77-21.34-8.67-32.02-1.63-5.99-4.19-12.02-4.33-18.08-1.25-55.01-2.81-110.04-2.63-165.06.07-21.5-5.74-37.79-22.82-51.6-26.84-21.7-46.98-47.76-50.76-84.35-1.34-12.96-7.33-26.17-13.88-37.73-16.38-28.91-33.79-57.27-51.74-85.24-20.05-31.25-40.93-61.54-46.74-99.81-6.87-45.26-8.77-45.86-53.68-47.58-16.11-.62-24.23-7.54-22.95-23.02,1.17-14.1-5.42-21.72-15.14-30.33-19.05-16.88-39.03-33.68-54.03-53.92-18.2-24.53-39.56-44.76-64.02-62.05-7.73-5.46-17.75-7.69-26.72-11.4ZM1218.76,3282.61c1.99-1.13,3.98-2.25,5.96-3.38,10.55,8.67,21.77,16.66,31.49,26.19,12.4,12.16,23.64,14.18,37.61,7.97,11.03-4.9,23.35-7.08,35.24-9.83,10.7-2.48,22.99-1.57,32.17-6.56,34.17-18.59,68.05-37.91,100.6-59.16,17.09-11.16,34.33-15.79,54.15-16.81,12.58-.65,25.62-3.96,37.26-8.9,34.12-14.48,66.93-32.26,101.58-45.2,35.56-13.29,72.53-22.96,109.15-33.22,49.84-13.96,100.24-19.27,151.67-8.33,17.16,3.65,32.38-6.69,31.84-22.89-1.44-42.75,24.31-75.24,39.07-111.91,11.49-28.54,22.78-57.21,32.41-86.4,2.4-7.26-1.99-16.76-3.25-25.24-6.42,4.24-12.54,9.09-19.36,12.54-5.84,2.95-14.43,7.66-18.27,5.45-4.44-2.56-7.6-12.2-6.75-18.11,1.77-12.27,5.96-24.32,10.2-36.08,15.98-44.4,33.25-88.36,48.12-133.13,4.71-14.17,4.44-30.33,4.47-45.58.02-7.87-4-15.58-15.25-9.36-13.51,7.47-20.1,4.46-20.31-10.82-.73-52.37,10.61-100.48,52-137.1,19.7-17.43,20.91-24.43,11.34-49.38-11.89-30.99-23.47-62.1-34.93-93.25-5.68-15.44-1.03-24.8,13.61-33.27,10.78-6.24,21.6-13.07,30.61-21.54,13.05-12.26,11.14-27.74-2.98-38.38-30.85-23.27-65.11-20.09-99.7-12.27-4.15.94-9.31,5.11-10.77,9-8.58,22.91-16.95,45.97-23.79,69.44-3.07,10.54,2.16,19.26,12.55,25.1,4.37,2.46,10.32,9.91,9.27,12.82-3.72,10.31-9.41,27.33-15.7,27.94-22.17,2.15-26.75,17.16-30.62,33.04-8,32.8-13.76,66.15-22.1,98.85-20.13,78.98-40.56,157.9-62.08,236.52-21.85,79.81-50.82,156.91-96.7,226.44-29.29,44.39-66.9,78.35-121.35,89.18-19.24,3.83-37.86-5.67-43.5-22.19-4.16-12.2-9.22-24.2-15.09-35.67-7.04-13.78-5.71-21.88,7.29-30.75,5.97-4.08,13.24-6.89,17.9-12.08,5.31-5.91,8.38-13.84,12.42-20.89-7.24-3.97-14.1-10.27-21.78-11.54-56.42-9.31-107.61,7.97-153.63,37.9-28.42,18.49-55.73,27.46-89.49,22.99-24.81-3.29-51.11-6.99-74.09,9.82-3.2,2.34-8.25,2.75-12.5,2.96-12.48.61-18.84-6.93-13.93-18.29,4.14-9.57,10.12-18.83,17.13-26.55,11.62-12.78,15.09-27.61,15.05-43.96-.07-27.33-8.31-34.48-34.95-30.3-5.7.89-11.29,2.92-17,3.32-22.51,1.59-34.48,14.89-43.89,34.32-10.84,22.38-24.28,43.57-37.53,64.68-18.99,30.24-31.48,61.8-25.66,98.43,1.67,10.48,2.69,21.08,3.36,31.67.36,5.68,1.13,12.52-1.5,16.91-3.58,5.97-9.97,13.58-15.65,14.01-5.27.4-13.21-6.63-16.28-12.36-3.65-6.83-3.57-15.73-4.73-23.79-1.64-11.44-1.23-23.53-4.97-34.18-2.65-7.55-10.73-13.2-16.39-19.7-2.84,7.53-8.19,15.1-8.09,22.59.54,39.55,1.77,79.13,4.44,118.59.56,8.34,6.55,17.85,12.83,23.96,14.81,14.43,31.6,26.8,47.01,40.64,12.51,11.23,23.18,13.47,38.11,5.34,7.6-4.14,14.39-9.78,21.99-13.94,14.7-8.05,24.46-4.12,34.37,9.28,9.09,12.3,20.57,22.82,31,34.12,1.32-.66,2.65-1.32,3.97-1.98-1.56-12.58-3.12-25.16-4.68-37.75ZM2708.87,1211.83c-1.78.43-3.56.85-5.33,1.28-.62,4.03-1.91,8.08-1.76,12.08.73,19.28,2.09,38.54,2.77,57.83,3.77,106.14-12.73,209.69-41.82,311.33-14.03,49.01-28.61,98.08-46.83,145.63-20.29,52.96-48.65,101.88-91.99,140.22-17.85,15.79-37.14,31.35-61.73,32.3-34.05,1.31-68.43,1.1-102.32-2.11-52.52-4.98-104.8-8.65-157.31-1.28-21.41,3-33.35,17.39-26.42,35.89,6.17,16.48,14.41,33.18,25.72,46.37,6.64,7.75,20.79,10.33,32.08,12.34,6.97,1.24,14.89-3.03,22.42-4.7,25.59-5.68,51.31-11.54,76.27,1.94,17.26,9.31,31.26,21.87,31.55,43.29.3,21.27,11.26,30.09,31.15,21.9,21.35-8.79,42.83-17.9,62.65-29.59,22.69-13.38,46.56-15.12,71.29-12.82,32.26,3,39.91.06,53.31-29.09,9.42-20.5,23.48-32.28,46.39-33.16,6.7-.26,13.33-2.08,20.02-3.03,20.19-2.87,29.91-16,33.69-34.66,2.39-11.82,4.58-23.7,6.25-35.63,2.82-20.14,15.47-32.12,32.03-41.97,8.03-4.78,15.91-11.15,21.39-18.62,12.71-17.31,21.42-36.59,21.55-58.81.19-32.79,1.22-65.59.34-98.35-.24-9.06-6.04-17.96-9.23-26.95-4.3-12.09-10.03-23.9-12.44-36.36-3.1-16.04-3.74-32.58-5.04-48.93-4.17-52.35-.58-101.83,40.23-142.33,18.18-18.04,13.97-36.87-3.85-55.64-10.48-11.04-21.8-23.11-27.1-36.88-12.21-31.72-20.89-64.79-31.23-97.24-1.58-4.95-4.43-9.5-6.69-14.24ZM2716.95,2091.87c.84-.86,1.69-1.72,2.53-2.58-5.31-6.6-9.57-14.66-16.18-19.49-11.22-8.19-24.07-14.1-35.97-21.41-18.68-11.48-32.67-6.7-38.71,14.41-4.77,16.67-8.02,33.76-12.56,50.5-10.83,39.93-20.2,80.39-33.57,119.48-14.69,42.93-53.07,44.56-84.07,16.77-10.92-9.79-18.17-23.56-28.56-34.08-12.74-12.9-27.38-10.69-38.19,3.82-9.46,12.69-9.8,27.08-7.3,41.57,2.94,17.08,7.3,33.92,10.58,50.95,3.71,19.32-2.82,31.21-19.36,36.77-24.64,8.28-49.3,16.49-73.85,25.04-18.37,6.4-22.89,14.92-17.32,33.21,2.66,8.71,6.39,17.16,10.25,25.43,8.77,18.82,13.53,36.16-3.02,54.67-13.32,14.89-8.96,30.93,7.63,41.47,20.51,13.03,28.76,13.81,48.18-2.5,39.12-32.86,79.58-64.68,114.9-101.35,40.67-42.21,77.42-88.38,114.01-134.32,43.9-55.13,73.71-118.2,97.1-184.38,1.59-4.5,2.35-9.3,3.5-13.96ZM837.5,2639.13c0,25.09-.95,50.23.29,75.26,1.03,20.71,7.69,26.3,27.41,28.14,4.8.45,9.65.95,14.45.75,69.35-2.84,139.08.11,207.54-15.58,22.54-5.17,34.02-14.39,38.78-37.12,3.17-15.11,6.2-30.29,8.43-45.56,8.21-56.24,10.4-113.54,30.09-167.71,9.43-25.95,6.29-48.42-14.76-68.62-16.09-15.44-26.53-17.16-42.68-1.17-15.44,15.28-30.58,30.87-45.89,46.28-10.03,10.09-14.91,21.6-14.05,36.4,2.31,39.49,3.89,79.04,4.96,118.59.21,7.89-.89,17.44-5.21,23.52-13.34,18.76-26.83,38-43.42,53.72-20.86,19.77-43.31,11.92-51.94-15.9-3.42-11.04-5.16-22.6-8.41-33.7-14.07-48.11-28.61-96.08-42.54-144.23-3.61-12.48-3.92-26.16-9-37.87-3.1-7.14-12.43-11.58-18.96-17.23-4.77,6.11-9.9,11.99-14.12,18.45-1.71,2.61-1.42,6.52-2.06,9.84-11.05,57.4-21.97,114.81-18.92,173.74ZM1313.39,2837.34v-.39c6.75,0,13.5.08,20.25-.02,17.41-.26,25.85-7.74,26.8-25.28.73-13.44,2.41-27.54-.68-40.29-3.12-12.9-9.1-27.08-18.34-36.03-11.48-11.13-27.9-19.19-45.05-13.02-16.09,5.79-17.1,21.72-18.95,36.23-2.13,16.73-4.48,33.44-6.65,50.17-2.67,20.57,4.91,29.08,25.28,28.64,5.78-.12,11.56-.02,17.35-.02ZM1072.83,2879.04c11.24-1.05,20.92-1.23,30.29-3.04,9.79-1.89,16.61-7.8,16.41-18.85-.46-25.69-7.77-49.3-22.96-70.08-12.15-16.62-28.16-18.15-45.22-6.18-23.83,16.72-26.71,40.46-24.12,66.62,2.2,22.24,9.28,29.74,31.43,31.46,5.24.41,10.55.06,14.18.06ZM904.08,2832.65c.31.03.63.06.94.09-.3,4.81-.51,9.63-.93,14.43-1.81,20.56,2.92,30.83,16.58,35.8,17.57,6.39,35.05.77,45.42-15.05,4.49-6.84,9.22-13.8,12.08-21.36,6.98-18.4,16.2-38.21,2.93-56.4-13.44-18.41-34.6-15.94-54.58-13.12-.95.13-2.19.1-2.78.68-5.37,5.31-13.56,9.94-15.3,16.31-3.38,12.35-3.12,25.69-4.37,38.62ZM1365.16,2876.79c-14.04,3.55-31.39,7.57-48.51,12.37-19.02,5.33-26.01,18.25-18.29,36.48,5.4,12.77,12.61,25.1,20.89,36.24,12.16,16.36,30.05,16.87,45.37,3.37,18.97-16.73,21.94-40.13,26.1-62.79,3.14-17.12-4.75-25.47-25.55-25.66ZM1178.63,2766.5c-22.58-.53-32.78,9.83-29.6,31.81,2.06,14.24,5.18,28.47,9.46,42.2,7.25,23.29,27.42,31.98,55.03,25,15.31-3.87,21.12-16.67,18.19-39.96-.36-2.86-.62-5.74-.84-8.62-2.3-30.74-21.95-49.72-52.24-50.43ZM1506.8,2721.14c4.03,17.95,5.49,35.41,22.39,43.51,15.71,7.54,25.49-6.06,35.87-15.04.36-.31.75-.6,1.12-.91,34.89-29.16,36.8-44.25,10.06-79.8-15.1-20.09-36.42-20.94-49.39.69-9.35,15.59-13.55,34.26-20.05,51.55ZM1395.54,2750.22c-.8.36-1.6.72-2.4,1.08,5.59,15.12,10.22,30.7,17.09,45.22,4.82,10.19,14.21,15.6,26.44,12.27,20.37-5.53,39.39-33.66,35.96-54.39-1.64-9.9-4.44-19.77-8.04-29.14-6.01-15.64-23.11-25.8-38.99-24.39-14.47,1.29-23.9,11.77-27.43,30.81-1.14,6.13-1.77,12.36-2.63,18.54ZM1060.65,2925.27c-27.48.63-37.5,11.44-36.87,39.77.7,31.39,15.5,48.3,41.96,47.96,30.41-.39,46.5-18.75,45.94-52.43-.36-21.31-21.56-35.98-51.03-35.3ZM1624.14,2822.64c0-4.34.12-8.68-.02-13.01-.63-19.11-10.11-25.85-27.28-17.89-10.82,5.02-20.63,12.31-30.67,18.92-13.88,9.14-20.06,22.65-17.34,38.64,2.07,12.2,5.45,24.79,11.23,35.6,10.78,20.14,36.04,19.4,47.59-.06,11.4-19.24,16.79-39.88,16.49-62.19ZM1468.81,2923.17c14.54.12,27.34-9.17,30.72-23.49,2.86-12.11,3.63-24.75,6.96-36.69,6.46-23.13-10.98-34.44-30.72-27.79-16.1,5.43-31.16,14.56-45.74,23.57-4.34,2.68-7.35,10.35-7.79,15.98-1.36,17.45,29.04,48.27,46.56,48.42ZM931.12,3199.73c1.66.13,3.32.25,4.98.38,2.26-6.19,6.18-12.31,6.47-18.59.8-17.29.64-34.69-.16-51.99-1.03-22.46,2.86-26.68,24.72-24.18,13.01,1.49,20.67-6.3,18.03-19-2.51-12.06-9.64-20.48-22.58-20.54-14.41-.07-28.82,1.44-43.23,2.22-12.6.68-14.91,7.89-12.73,18.86,6.47,32.5,12.49,65.09,18.99,97.59,1.05,5.24,3.64,10.18,5.51,15.26ZM984.38,2984.65c-3-7.93-7-19.73-11.9-31.14-11.09-25.83-19.12-27.89-41.7-10.83-5.33,4.03-10.44,8.63-14.66,13.79-9.08,11.1-8.54,21.65.75,32.57,12.36,14.52,28.79,20.63,47.15,21.7,13.57.79,20.89-7.64,20.36-26.08ZM1643.95,3443.51h.2c0-.96.2-1.98-.03-2.88-2.19-8.43-4.46-16.84-6.7-25.26-5.97,6.14-12.69,11.72-17.76,18.52-17.4,23.36-30.55,50.5-59.23,63.46-2.87,1.3-4.36,5.65-6.49,8.58,3.43,2.04,6.68,5.4,10.33,5.92,50.23,7.23,77.59-15.39,79.68-65.45.04-.96,0-1.93,0-2.89ZM2167.94,2401.37c.52-29.6-13.09-38.45-32.8-28.31-14.43,7.42-28.37,15.84-42.2,24.34-9.59,5.9-10.43,16.94-.97,23.95,9.15,6.78,19.28,13.83,30.02,16.38,8.11,1.93,20.9-.08,26.21-5.56,9.82-10.14,15.68-24.12,19.75-30.81ZM859.77,2833.47c-4.79-9.55-8-20.52-14.88-28.2-5.2-5.8-15.41-10.77-22.83-10.08-11.29,1.04-12.35,12.19-13.04,22.44-.85,12.66-2.43,25.46-5.53,37.73-2.65,10.49-4.76,20.34,5.14,27.35,9.94,7.04,20.07,4.59,29.05-2.95,13.93-11.71,18.53-27.49,22.09-46.28ZM1133.01,2212.2c-2.72-4.24-5.13-12.29-9.21-13.26-5.3-1.26-13.39,1.55-17.64,5.47-5.81,5.35-8.72,13.71-13.6,20.24-13.22,17.74-27.3,34.86-39.93,53-3.24,4.66-2.39,12.17-3.41,18.37,6.2.41,12.39,1.01,18.59,1.08,1.72.02,3.58-1.39,5.18-2.44,23.63-15.37,40.58-36.83,54.14-61.03,3.17-5.66,3.63-12.84,5.89-21.43ZM849.8,3058.79c-.42-.75-.83-1.5-1.25-2.25-5.89,3.18-14.83,5.07-16.84,9.87-2.18,5.22.2,14.57,3.98,19.54,6.55,8.62,15.15,16.07,24.08,22.28,3.29,2.28,13.92.88,14.47-.91,3.58-11.61,8.19-24.27,6.36-35.59-.86-5.3-15.26-8.56-23.69-12.39-2.04-.93-4.73-.41-7.13-.56ZM1650.09,2689.35c15.44.25,31.26-15.96,31.37-30.58.08-10.29-4.8-16.38-15.63-16.66-15.14-.39-29.43,13.68-29.98,29.5-.39,11.15,4.83,17.19,14.24,17.74ZM833.67,2945.62c-.15-11.08-7.91-18.66-19.25-18.84-13.53-.21-24.56,11.85-24.06,26.72.38,11.14,5.67,18.38,17.52,18.36,12.9-.01,25.96-13.68,25.78-26.24ZM510.32,1920.43c-2.64,2.53-9.96,6.39-11.76,12.03-2.59,8.09,11.89,17.29,26.46,15.73,4.62-.49,12.18-7.66,12.09-11.64-.27-13.22-11.51-14.56-26.79-16.11ZM1270.43,3376c.18-13.07-7.17-21-16.4-19.42-4.27.73-9.9,5.69-11.04,9.81-2.16,7.77,8.57,19.14,16.5,17.54,4.74-.96,8.62-6.15,10.94-7.93ZM896.37,450.61c-9.04-7.6-14.34-13.21-20.8-16.58-1.4-.73-6.99,6.54-10.64,10.12,5.27,5.33,10.05,11.4,16.15,15.49,1.56,1.05,7.31-4.16,15.29-9.03Z"/>
  <path class="cls-3" d="M2257.19,384.6c8.97,3.71,18.99,5.93,26.72,11.4,24.47,17.29,45.83,37.52,64.02,62.05,15.01,20.24,34.98,37.04,54.03,53.92,9.72,8.61,16.31,16.23,15.14,30.33-1.28,15.48,6.84,22.4,22.95,23.02,44.91,1.72,46.81,2.32,53.68,47.58,5.81,38.28,26.69,68.57,46.74,99.81,17.95,27.97,35.36,56.33,51.74,85.24,6.56,11.57,12.54,24.77,13.88,37.73,3.78,36.59,23.92,62.64,50.76,84.35,17.07,13.8,22.89,30.1,22.82,51.6-.19,55.02,1.37,110.04,2.63,165.06.14,6.06,2.7,12.09,4.33,18.08,2.9,10.68,6.78,21.17,8.67,32.02,1.36,7.79-1.06,14.67-11.21,8.09-13.25-8.59-22.75-2.96-31.01,7.71-13.5,17.44-21.15,36.81-18.41,59.24,1.58,12.92,3.54,25.81,5.7,38.64,2.96,17.55-.25,32.91-15.62,43.59-16.93,11.77-24.51,28.24-24.67,48.19-.34,40.96-.98,81.95.14,122.88.52,19.05-6.02,33.22-18.94,46.38-25.99,26.46-52.55,52.55-76.22,81.01-14.55,17.49-28.28,38.04-26.17,62.72,3.81,44.55-34.69,66.26-68.84,73.6-45.21,9.72-90.32,20.02-135.19,31.23-19.34,4.83-28.89,1.57-36.21-17.39-1.72-4.46-2.67-9.24-3.78-13.92-3.49-14.74-12.3-20.79-27.5-18.75-26.68,3.58-30.57.5-35.06-26.36-3.35-20.04-15.23-32.56-34.64-38.58-41.71-12.94-41.95-13.12-34.66-56.7,2.23-13.32-1.26-23.96-10.96-32.58-15.24-13.55-18.71-29.15-11.3-48.25,16.59-42.73,22.79-87.62,26.31-133,1.69-21.73-5.49-29.02-27.83-29.63-3.19-.09-8.88-5.79-8.87-8.87.06-13.77-5.63-23.91-15.52-32.84-9.68-8.74-9.47-18.25-2.94-29.79,18.49-32.63,36.09-65.77,53.61-98.94,10.34-19.59,19.98-39.55,29.65-59.49,2.07-4.26,3.8-9.03,4.16-13.69.91-11.79-5.93-16.4-16.13-10.87-6.32,3.42-12.5,7.47-17.85,12.24-36.62,32.72-73.13,65.58-109.44,98.65-51.35,46.77-77.68,102.97-61.12,173.26,4.7,19.93,13.4,39.27,22.62,57.69,13.78,27.52,29.74,53.94,44.61,80.92,24.05,43.6,37.85,89.43,31.77,140.02-5.58,46.37,11.55,86.02,37.96,122.75,15.76,21.92,32.3,43.43,45.99,66.6,6.23,10.55,8.04,24.56,8.94,37.21,1.62,23,.68,46.18,1.52,69.25.66,18.19-5.54,25.62-22.9,31.29-11.44,3.74-23.42,9.29-32.05,17.35-13.3,12.42-27.39,19.31-45.42,22.66-90.93,16.9-182.5,20.77-273.92,9.28-46.13-5.8-90.97-21.31-136.72-30.81-25.85-5.37-44.37-16.5-52.01-43.3-3.2-11.22-12.74-13.54-23.53-8.96-8,3.39-16.12,6.48-24.07,9.98-18.26,8.03-33.23,1.69-48.4-9.03-31.41-22.21-63.74-43.11-95.27-65.16-15.77-11.03-30.79-23.16-45.81-35.22-15.39-12.36-22.46-12.97-33.67-1.74-21.75,21.8-26.91,36.57-13.12,49.12,35.64,32.43,46.84,76.54,60.66,119.5,21.87,68.01,40.65,136.88,50.15,207.83,4.28,32,5.85,64.36,8.59,96.56.29,3.36-.6,6.97.33,10.09,1.8,6,4.5,11.73,6.83,17.58,4.31-5.69,10.9-10.81,12.51-17.18,5.3-21.02,8.75-42.5,13.01-63.79,5.09-25.48,25.99-45.3,48.54-43.52,8.02.64,18.62,5.64,22.38,12,3.27,5.54,1.59,18.96-3.11,23.43-24.52,23.35-27.89,53.87-33,84.41-5.81,34.73-13.05,69.21-19.35,103.86-1.8,9.92-2.89,20.02-3.6,30.09-.98,13.97-8.51,20.42-21.7,17.62-9.91-2.1-21.77-12.52-27.7,4.52-5.05,14.5,4.95,34.68,18.86,39.91,6.71,2.52,14.01,3.52,21.07,5.06,3.76.82,7.72.93,11.37,2.08,10.81,3.42,21.83,7.33,22.87,20.94,1.08,14.16-9.96,18.83-20.44,22.81-27.04,10.26-54.18,20.3-81.46,29.91-24.16,8.51-36.26-.34-35.74-26.24,1.04-51.15,3.17-102.28,3.59-153.43.25-30.38-2.41-60.77-2.82-91.17-.46-34.69-.18-69.4.42-104.09.25-14.23,1.98-28.64-11.65-38.01-4.39-3.02-11.28-6.18-15.4-4.71-3.94,1.41-7.35,8.5-8.11,13.54-.98,6.43.26,13.45,1.7,19.97,15.13,68.27,9.99,136.35-2.83,204.1-1.9,10.05-9.09,20.56-16.75,27.73-12.15,11.35-17.6,22.59-13.87,39.52,7.05,31.93,13.42,64.1,17.89,96.47,1.27,9.2-2.45,21.53-8.39,28.7-8.37,10.11-20.39,17.62-31.82,24.68-21.16,13.06-48.13,3.25-51.89-21.4-5.06-33.22-8.96-67.36-7.05-100.75,6.07-105.97,15.6-211.74,22.58-317.67,1.89-28.77.29-57.87-1.21-86.74-1.05-20.25-11.34-26.7-31.29-22.34-2.81.61-5.53,1.71-8.24,2.71-25.87,9.62-34.51,4.12-45.81-20.22-17.99-38.76-35.87-78.03-58.72-113.96-42.81-67.3-92.94-129.15-151.85-183.52-28.76-26.54-38.44-27.68-69.86-4.61-24.58,18.04-49.74,34.84-81.01,39.36-11.62,1.68-23.75,4.81-32.43-5.53-8.79-10.49-3.4-21.68.98-32.69,5.32-13.39,10.24-26.99,14.32-40.8,11.61-39.31,22.22-78.91,34.11-118.13,17.47-57.64,35.95-114.98,53.53-172.58,9.42-30.85,18.12-61.92,26.66-93.02,5.55-20.22-.7-39.16-8.24-57.66-4.53-11.11-10.3-21.76-14.29-33.05-8.45-23.91-19.92-28.26-42.4-16.86-5.58,2.83-17.36,3.94-19.43,1.01-4.38-6.22-6.67-15.98-5.53-23.65,5.18-34.81,12.01-69.38,17.94-104.08,5.85-34.23,11.14-68.57,17.09-102.78,1.4-8.02,5.74-15.65,6.42-23.65.5-5.93-.96-15.27-4.78-17.47-4.18-2.4-13.24,0-18.04,3.36-5.08,3.56-8.43,10.35-11.14,16.35-4.53,10.02-11.47,16.33-22.45,13.97-12.23-2.63-8.87-13.13-8.16-21.44,1.43-16.81,3.68-33.55,4.91-50.37.89-12.19-4.92-17.37-17.7-16.32-7.64.63-15.52-1.75-23.29-2.77,3.16-8.73,4.68-18.65,9.91-25.88,6.05-8.37,16.04-13.76,23.02-21.61,4.66-5.25,10.59-13.25,9.47-18.69-1.17-5.72-9.35-11.47-15.75-14.29-7.75-3.41-16.94-3.41-25.36-5.49-16.05-3.97-20.32-16.01-8.74-27.52,10.19-10.13,22.61-17.97,33.37-27.59,11.82-10.57,23.12-21.77,34.06-33.25,3.13-3.29,5.45-8.39,5.92-12.89.45-4.28-.69-10.5-3.58-12.83-2.78-2.24-9.43-2.1-13.09-.34-8.18,3.96-15.54,9.61-23.27,14.51-9.77,6.19-19.31,12.83-29.51,18.22-3.59,1.9-8.83.69-13.32.9.7-4.85-.17-10.9,2.41-14.33,6.93-9.21,14.03-19.31,23.41-25.46,25.65-16.79,52.54-31.67,78.86-47.45,7.35-4.41,14.89-8.71,21.51-14.09,8.23-6.68,8.85-15.22,3.97-24.71-13.39-26.01-12.4-33.43,6.47-55.71,1.87-2.21,4.41-4.24,5.28-6.82,1.58-4.68,4.31-10.84,2.52-14.27-1.9-3.64-8.57-6.81-13.05-6.68-10.53.31-21.01,3.93-31.48,3.79-6.06-.08-12.06-4.85-18.09-7.51,3.37-5.85,5.41-14.91,10.36-16.97,18.1-7.51,37.24-12.45,55.82-18.86,7.34-2.53,17.88-4.74,20.28-10.09,2.4-5.34-2.97-14.69-6.08-21.79-1.64-3.75-6.3-6.06-8.57-9.66-3.14-4.98-8.77-12.4-7.14-15.49,2.9-5.46,9.97-10.39,16.21-11.99,8.18-2.1,17.34-1.66,25.89-.69,14.89,1.68,15.41,14.13,16.3,25.15,2.69,33.19,4.76,66.43,7.37,99.63,1.02,12.97,2.37,25.95,4.45,38.79,1.65,10.19,6.5,18.63,18.48,18.83,11.57.2,14.87-8.48,18-17.59,16.98-49.41,20.36-100.9,25-152.4,2.94-32.57,8.98-64.96,15.4-97.07,2.17-10.83,8.57-21.44,15.12-30.66,26.58-37.4,66.69-51.02,109.23-58.32,44.45-7.63,88.51-.05,132.41,7.05,4.29.69,8.58,1.54,12.9,1.81,26.61,1.65,36.42-7.39,37.02-33.9.48-21.3,7.35-28.32,28.58-29.38,93.04-4.67,186.07-9.68,279.13-13.76,18.14-.79,31.23-8.09,41.94-21.72,3.28-4.17,6.73-8.23,10.43-12.02,14.46-14.78,31.33-18.53,48.31-7.02,18.21,12.34,35.97,26.17,50.99,42.12,12.84,13.63,26.53,18.74,43.79,15.9,22.38-3.68,44.69-7.9,66.87-12.62,44.71-9.51,46.15-1.69,66.43,32.46,13.33,22.45,27.54,42.13,50.33,56.2,19,11.73,33.56,28.89,40.99,50.93,6.16,18.28,12.43,36.52,18.92,54.68,5.37,15.01,32.26,34.27,47.97,34.79,9.74.32,16.35-4.62,17.38-13.79.83-7.36.15-15.7-2.59-22.5-11.5-28.56-23.58-56.91-36.34-84.94-8.13-17.85-16.68-35.73-27.32-52.12-4.91-7.56-15.05-11.94-23.25-17.06-7.23-4.52-16.04-6.99-22.25-12.51-3.3-2.94-4.17-10.8-3.04-15.72.7-3.07,7.37-7.05,11.07-6.77,23.83,1.81,47.7,6.15,65.53,23.09,7.69,7.3,12.24,19.54,14.75,30.33,5.38,23.16,14.03,27.06,32.03,12.08,19.31-16.07,25.64-13.51,34.96,9.36,11.31,27.75,31.2,49.74,54.02,68.73,12.54,10.43,25.93,20.03,39.81,28.57,5.42,3.33,13.27,2.72,20.01,3.9-.01-7.17.97-14.53-.3-21.48-1.5-8.26-4.94-16.16-7.54-24.22,1.37-1.55,2.74-3.1,4.12-4.65ZM991.97,1135.24c-2.24.2-4.49.39-6.73.59-.43,5.5-1.24,11.01-1.23,16.51.06,31.86-.19,63.74.62,95.58,1.02,39.83-7.4,76.57-31.76,108.91-8.14,10.82-6.73,21.29,1.94,31.61,4.58,5.45,7.7,12.1,11.74,18.04,16.42,24.18,17.02,52.92,22.75,80.08,4.09,19.41-5.34,30.08-25.29,32-17.28,1.66-34.78,2.54-51.71,6.04-31.09,6.42-35.89,21.68-19.98,48.85,6.92,11.82,12.28,27.19,11.38,40.47-2.76,41.07-4.78,81.89,1.44,122.76,5.15,33.88,18.2,61.84,53.94,73.36,9.69,3.12,18.88,5.15,26.85-3.22,7.89-8.28,6.83-17.96,2.16-26.94-9.32-17.95-18.59-36.01-29.4-53.07-20.85-32.89-36.44-65.98-18.59-105.77,3.63-8.09,3.43-17.93,4.83-26.99,1.85-11.96,6.77-22.28,20.13-22.63,13.35-.35,17.16,10.64,19.18,21.57,3.76,20.41,6.42,41.06,11.19,61.22,1.32,5.57,9.39,14.26,12.77,13.58,5.96-1.2,13.72-7.67,15.29-13.42,2.84-10.39,2.53-21.91,1.98-32.88-.62-12.48-3.96-24.87-4.04-37.31-.03-5.1,4.23-12.37,8.63-14.7,3.59-1.9,11.54.58,15.39,3.74,12.97,10.64,18.85,24.53,18.32,41.98-.51,16.72-1.83,34.69,3.3,50.07,13.82,41.46,30.19,82.13,47,122.5,6.78,16.27,17.39,30.94,26.19,46.38,6.27,11,7.36,22.34-.85,32.58-17.22,21.48-9.94,33.47,9.93,49.34,7.58,6.06,14.57,14.47,18.36,23.3,7.69,17.91-.15,26.26-19.26,24.02-5.43-.64-13.73.77-16.29,4.38-2.7,3.81-1.91,12.27.51,17.12,7.95,15.94,15.96,32.18,26.5,46.41,13.66,18.46,28.67,36.23,45.18,52.14,11.64,11.22,25.25,7.32,26.22-6.25,1.72-23.89,6.7-46.47,16.14-68.44,2.73-6.35,2.63-14.27,2.51-21.44-.48-28.95-1.34-57.89-2.35-86.82-.53-15.23-5.15-27.53-20.35-35.39-32.31-16.7-56.05-42.4-71.22-75.4-3.87-8.42-7.49-18.92-5.89-27.46,3.35-17.86,9.64-35.27,15.89-52.43,4.8-13.15,16.57-15.98,26.14-5.91,8.5,8.96,15.92,19.39,21.9,30.23,16.01,29.02,34.48,56.03,61.73,75.44,21.11,15.03,43.28,28.6,65.34,42.22,49.37,30.48,104.93,45.57,160.95,53.27,74.22,10.21,149.06,9.62,222.1-14.28,41.4-13.55,79.48-32.28,112.06-60.99,33.02-29.1,62.47-61.82,68.78-107.42,5.33-38.57,8.38-77.65,9.39-116.58,1.48-57.13-12.96-110.57-43.23-159.65-28-45.41-66.17-80.1-114.67-100.37-32.05-13.4-67.11-21.02-101.56-26.97-66.76-11.51-134.34-13.76-201.97-8.92-24.05,1.72-47.89,6.14-71.93,8.13-24.57,2.04-35.72-8.43-37.53-33.08-2.22-30.33,23.88-66.6,53.54-72,7.46-1.36,17.59,1.27,23.82,5.77,19.09,13.81,22.73,14.21,38.17-3.13,13.77-15.46,23.55-16.36,39.69-3.63,16.02,12.63,20.41,12.93,36.8,1.03,12.04-8.75,22.98-19.26,35.72-26.75,15.46-9.09,24.47-4.98,31.99,11.63,9.26,20.44,25.54,31.66,46.91,36.95,11.65,2.89,22.78,7.97,34.49,10.42,7.44,1.55,18.74,3.29,22.68-.67,10.58-10.62,20.46-23.27,26.26-36.96,6.24-14.72-6.54-29.75-21.81-26.84-15.39,2.94-20.74-5.16-25.89-16.6-7.3-16.23-13.17-33.69-23.47-47.86-23.17-31.89-52.09-55.43-95.34-52.63-6.05.39-17-3.23-17.64-6.55-1.18-6.1,2.15-14.49,6.29-19.86,5.16-6.68,13.81-10.57,19.56-16.92,7.42-8.19,12.6-18.82,5.06-28.91-8.03-10.75-16.3-1.17-24.01,2.7-32.76,16.46-59.72,3.65-66.22-31.52-.53-2.85-.36-6.25-1.9-8.4-4.36-6.12-9.45-11.73-14.24-17.55-4.56,5.47-11.12,10.25-13.27,16.54-4.5,13.18-5.7,27.48-10.29,40.61-1.75,4.99-9.14,11.15-13.86,11.07-4.61-.08-12.05-6.85-13.05-11.73-2.56-12.62-4.16-26.03-2.72-38.74,4.68-41.19,10.99-82.2,16.43-123.31.94-7.1,1.92-14.58.63-21.47-1.51-8.14-7.3-11.31-15.02-5.77-13.88,9.97-23.9,22.15-23.87,40.53,0,6.69-.55,13.7-2.61,19.99-1.71,5.23-6.01,9.61-9.16,14.36-2.13-4.89-6.1-9.8-6.07-14.68.12-21.57,1.43-43.14,2.24-64.71.38-10.12,2.31-21.61-10.82-25.2-12.29-3.36-18.75,4.96-23.01,14.97-3.2,7.52-5.78,15.3-8.65,22.97-4.05,10.83-8.12,21.65-12.18,32.48-1.7-.18-3.39-.35-5.09-.53-2.76-5.85-5.07-11.99-8.46-17.45-2.04-3.3-5.75-5.56-8.71-8.29-2.33,3.3-5.58,6.29-6.8,9.95-2.28,6.83-2.51,14.43-5.28,21-2.04,4.86-6.24,11.3-10.41,12.09-4.26.8-10.81-3.38-14.34-7.23-10.39-11.31-8.78-24.47-4.33-38.09,2.63-8.06,5.18-16.83,4.64-25.08-.72-10.97-9.31-13.77-17.01-6.07-6.39,6.4-14.07,13.37-16.54,21.49-8.24,27.14-23.84,47.46-46.87,63.92-12.71,9.09-21.49,23.14-14.18,40.49,7.14,16.95,3.42,33.43-1.92,49.42-1.81,5.41-8.73,12.59-13.42,12.67-5.64.1-11.97-5.89-16.92-10.42-3.38-3.09-4.56-8.45-7.31-12.38-9.18-13.14-23.64-14.42-32.16-1.01-14.31,22.53-37.18,31.42-59.73,40.8-18.01,7.49-21.47,13.41-19.84,32.83,4.84,57.65,9.45,115.33,12.56,173.09.72,13.45-3.85,27.56-8.07,40.7-1.61,5-9.11,8.1-13.92,12.06-3.51-4.7-9.3-9.04-10.12-14.17-2.82-17.57-3.7-35.45-5.72-53.16-1.74-15.37-4.02-30.67-6.06-46ZM2614.12,1119.35c12.3-.66,21.22-5.18,25.44-16.72,3.43-9.38,1.31-18.55-7.84-22.29-31.56-12.88-63.18-25.9-95.67-35.99-9.58-2.98-23.4,1.12-33,6.24-18.18,9.7-34.69,22.52-51.94,33.97-36.38,24.16-75.23,44.16-106.54,76.33-20.82,21.39-47.99,36.6-72.33,54.57-18.11,13.38-37.7,25.22-53.87,40.63-12.57,11.98-22.51,27.57-30.58,43.13-6.58,12.69,1.3,28.61,13.25,34.49,11.29,5.55,21.63,1,30.74-13.6,2.3-3.68,5.12-7.22,6.56-11.23,8.82-24.43,27.53-40.43,47.45-54.98,40.47-29.57,83.07-56.55,112.65-98.61,2.84-4.04,8.05-6.81,12.67-9.15,26.63-13.47,53.15-27.24,80.26-39.68,14.99-6.88,29.47-18.51,47.67-12.79,17.01,5.34,33.58,12.07,50.42,17.96,8.12,2.84,16.42,5.16,24.63,7.71ZM2245.09,826.43c-.17-74.38-27.35-134.13-95.43-170.57-6.5-3.48-15.12-3-22.76-4.35-1.24,7.72-2.95,15.41-3.52,23.18-.27,3.65,1.18,7.67,2.67,11.17,10.31,24.18,22.41,47.71,43.91,63.61,29.28,21.65,35.82,50.1,28.48,83.37-8.21,37.2-16.61,74.39-26.25,111.24-6.45,24.64-15.93,48.48-22.54,73.09-2.01,7.48-1.87,19.2,2.61,23.7,4.33,4.36,16.24,4.3,23.5,2,15.81-5,27.51-16.19,32.29-32.62,17.52-60.17,38.01-119.76,37.04-183.8ZM2125.46,555.09c-4.5-5.79-8.45-15.8-15.13-18.2-7.63-2.73-19.8-1.65-26.27,2.98-17.63,12.63-29.98,30.25-30.06,53.09-.03,8.17,2.07,21.05,7.12,23.43,7.65,3.6,21.54,3.5,27.84-1.39,18.08-14.01,27.53-34.81,36.5-59.92ZM2252.84,1575.74c-3.7-11.67-4.65-21.57-9.73-28.41-3.64-4.9-13.3-8.51-19.33-7.43-4.71.85-11.38,9.96-11.13,15.1.47,9.51,3.88,19.72,8.93,27.86,3.43,5.53,13.93,12.55,17.42,10.87,6.28-3.02,9.67-12.05,13.85-17.99ZM1622.08,2022.84c13.01-2.51,19.98-7.65,18.12-18.13-.73-4.11-6.72-7.28-10.32-10.89-5.29,6.72-11.08,13.14-15.34,20.46-.68,1.17,5.53,6.35,7.54,8.55ZM1749.78,1242.79c6.47,6.72,9.89,10.28,13.32,13.84,4.8-5.27,10.55-10.03,13.86-16.12,1.05-1.93-4.41-7.39-6.9-11.24-5.73,3.82-11.45,7.63-20.28,13.51Z"/>
  <path class="cls-3" d="M1218.76,3282.61c1.56,12.58,3.12,25.16,4.68,37.75-1.32.66-2.65,1.32-3.97,1.98-10.43-11.3-21.91-21.83-31-34.12-9.9-13.4-19.67-17.33-34.37-9.28-7.6,4.16-14.38,9.8-21.99,13.94-14.94,8.13-25.6,5.89-38.11-5.34-15.41-13.84-32.2-26.21-47.01-40.64-6.27-6.11-12.26-15.62-12.83-23.96-2.67-39.46-3.9-79.04-4.44-118.59-.1-7.49,5.25-15.06,8.09-22.59,5.66,6.5,13.73,12.15,16.39,19.7,3.74,10.66,3.33,22.75,4.97,34.18,1.16,8.06,1.08,16.96,4.73,23.79,3.07,5.73,11.01,12.76,16.28,12.36,5.68-.43,12.07-8.03,15.65-14.01,2.63-4.39,1.85-11.23,1.5-16.91-.67-10.59-1.69-21.2-3.36-31.67-5.82-36.63,6.67-68.19,25.66-98.43,13.26-21.11,26.7-42.3,37.53-64.68,9.41-19.43,21.38-32.73,43.89-34.32,5.72-.4,11.3-2.43,17-3.32,26.64-4.18,34.89,2.97,34.95,30.3.04,16.35-3.43,31.18-15.05,43.96-7.02,7.72-13,16.98-17.13,26.55-4.91,11.36,1.45,18.9,13.93,18.29,4.25-.21,9.3-.62,12.5-2.96,22.98-16.81,49.28-13.11,74.09-9.82,33.76,4.48,61.07-4.5,89.49-22.99,46.01-29.94,97.2-47.22,153.63-37.9,7.69,1.27,14.54,7.57,21.78,11.54-4.04,7.05-7.11,14.98-12.42,20.89-4.67,5.19-11.93,8.01-17.9,12.08-13,8.87-14.34,16.97-7.29,30.75,5.87,11.47,10.93,23.47,15.09,35.67,5.64,16.53,24.26,26.02,43.5,22.19,54.45-10.83,92.06-44.79,121.35-89.18,45.88-69.54,74.85-146.63,96.7-226.44,21.52-78.61,41.95-157.53,62.08-236.52,8.33-32.7,14.1-66.05,22.1-98.85,3.87-15.88,8.45-30.89,30.62-33.04,6.29-.61,11.98-17.63,15.7-27.94,1.05-2.91-4.89-10.36-9.27-12.82-10.39-5.85-15.62-14.56-12.55-25.1,6.84-23.47,15.22-46.53,23.79-69.44,1.45-3.89,6.62-8.06,10.77-9,34.59-7.82,68.85-11,99.7,12.27,14.11,10.64,16.02,26.12,2.98,38.38-9.01,8.47-19.83,15.3-30.61,21.54-14.64,8.47-19.29,17.82-13.61,33.27,11.46,31.15,23.04,62.26,34.93,93.25,9.58,24.95,8.36,31.95-11.34,49.38-41.39,36.62-52.73,84.73-52,137.1.21,15.28,6.8,18.29,20.31,10.82,11.25-6.22,15.26,1.49,15.25,9.36-.03,15.25.24,31.41-4.47,45.58-14.87,44.76-32.14,88.73-48.12,133.13-4.24,11.76-8.43,23.81-10.2,36.08-.85,5.91,2.3,15.55,6.75,18.11,3.84,2.21,12.43-2.5,18.27-5.45,6.82-3.45,12.94-8.3,19.36-12.54,1.27,8.47,5.65,17.97,3.25,25.24-9.63,29.19-20.92,57.87-32.41,86.4-14.76,36.67-40.52,69.16-39.07,111.91.55,16.2-14.68,26.54-31.84,22.89-51.43-10.94-101.84-5.63-151.67,8.33-36.63,10.26-73.59,19.93-109.15,33.22-34.65,12.95-67.46,30.72-101.58,45.2-11.64,4.94-24.68,8.25-37.26,8.9-19.82,1.02-37.07,5.65-54.15,16.81-32.55,21.25-66.43,40.57-100.6,59.16-9.18,5-21.47,4.08-32.17,6.56-11.89,2.76-24.21,4.93-35.24,9.83-13.97,6.21-25.21,4.19-37.61-7.97-9.71-9.53-20.94-17.52-31.49-26.19-1.99,1.13-3.98,2.25-5.96,3.38ZM1999.14,2467.33c-2.99-4.99-6.15-10.26-9.31-15.52-4.52,2.79-11.54,4.55-13.15,8.52-14.25,35.06-27.57,70.5-41.03,105.88-.82,2.14-.8,4.8-.5,7.14,1.25,9.72,9.13,13.14,16.25,6.31,12.08-11.57,24.94-22.61,27.29-41.18,1.06-8.41,5.65-16.31,8.02-24.62,4.2-14.73,7.93-29.59,12.42-46.52Z"/>
  <path class="cls-3" d="M2708.87,1211.83c2.26,4.74,5.11,9.29,6.69,14.24,10.35,32.45,19.02,65.52,31.23,97.24,5.3,13.77,16.61,25.84,27.1,36.88,17.83,18.77,22.04,37.6,3.85,55.64-40.81,40.5-44.4,89.98-40.23,142.33,1.3,16.36,1.94,32.89,5.04,48.93,2.41,12.46,8.14,24.27,12.44,36.36,3.2,8.99,8.99,17.89,9.23,26.95.88,32.76-.15,65.56-.34,98.35-.13,22.22-8.84,41.5-21.55,58.81-5.48,7.47-13.36,13.84-21.39,18.62-16.56,9.85-29.2,21.83-32.03,41.97-1.67,11.94-3.86,23.82-6.25,35.63-3.78,18.66-13.5,31.79-33.69,34.66-6.69.95-13.32,2.77-20.02,3.03-22.91.88-36.97,12.67-46.39,33.16-13.4,29.15-21.05,32.09-53.31,29.09-24.73-2.3-48.6-.56-71.29,12.82-19.82,11.69-41.3,20.8-62.65,29.59-19.9,8.19-30.86-.63-31.15-21.9-.3-21.43-14.29-33.98-31.55-43.29-24.97-13.47-50.69-7.61-76.27-1.94-7.52,1.67-15.45,5.95-22.42,4.7-11.29-2.01-25.44-4.6-32.08-12.34-11.31-13.19-19.55-29.89-25.72-46.37-6.93-18.5,5.01-32.88,26.42-35.89,52.52-7.37,104.79-3.7,157.31,1.28,33.89,3.21,68.27,3.43,102.32,2.11,24.59-.95,43.88-16.51,61.73-32.3,43.34-38.34,71.7-87.26,91.99-140.22,18.22-47.55,32.81-96.61,46.83-145.63,29.09-101.64,45.59-205.19,41.82-311.33-.68-19.28-2.05-38.54-2.77-57.83-.15-4,1.14-8.05,1.76-12.08,1.78-.43,3.56-.85,5.33-1.28Z"/>
  <path class="cls-3" d="M2716.95,2091.87c-1.15,4.66-1.91,9.46-3.5,13.96-23.39,66.19-53.2,129.25-97.1,184.38-36.58,45.94-73.33,92.11-114.01,134.32-35.33,36.66-75.79,68.49-114.9,101.35-19.41,16.31-27.66,15.53-48.18,2.5-16.59-10.53-20.95-26.57-7.63-41.47,16.56-18.51,11.8-35.85,3.02-54.67-3.86-8.28-7.59-16.72-10.25-25.43-5.58-18.29-1.05-26.81,17.32-33.21,24.55-8.55,49.21-16.75,73.85-25.04,16.54-5.56,23.08-17.45,19.36-36.77-3.28-17.03-7.64-33.86-10.58-50.95-2.49-14.49-2.16-28.88,7.3-41.57,10.81-14.5,25.45-16.72,38.19-3.82,10.38,10.52,17.64,24.29,28.56,34.08,31,27.8,69.38,26.16,84.07-16.77,13.37-39.08,22.74-79.54,33.57-119.48,4.54-16.74,7.79-33.83,12.56-50.5,6.04-21.11,20.03-25.88,38.71-14.41,11.9,7.31,24.75,13.22,35.97,21.41,6.61,4.83,10.86,12.89,16.18,19.49-.84.86-1.69,1.72-2.53,2.58Z"/>
  <path class="cls-3" d="M837.5,2639.13c-3.05-58.93,7.87-116.34,18.92-173.74.64-3.32.35-7.23,2.06-9.84,4.22-6.47,9.35-12.34,14.12-18.45,6.53,5.65,15.86,10.09,18.96,17.23,5.09,11.71,5.39,25.39,9,37.87,13.93,48.15,28.47,96.12,42.54,144.23,3.25,11.1,4.99,22.66,8.41,33.7,8.62,27.82,31.08,35.67,51.94,15.9,16.59-15.72,30.08-34.96,43.42-53.72,4.32-6.07,5.42-15.63,5.21-23.52-1.07-39.55-2.65-79.09-4.96-118.59-.87-14.8,4.02-26.31,14.05-36.4,15.31-15.41,30.45-30.99,45.89-46.28,16.15-15.99,26.59-14.28,42.68,1.17,21.04,20.19,24.18,42.67,14.76,68.62-19.68,54.18-21.88,111.48-30.09,167.71-2.23,15.27-5.26,30.45-8.43,45.56-4.76,22.73-16.24,31.95-38.78,37.12-68.46,15.69-138.19,12.75-207.54,15.58-4.8.2-9.65-.3-14.45-.75-19.72-1.84-26.38-7.43-27.41-28.14-1.24-25.03-.29-50.17-.29-75.26Z"/>
  <path class="cls-3" d="M1313.39,2837.34c-5.78,0-11.57-.11-17.35.02-20.37.44-27.95-8.07-25.28-28.64,2.17-16.73,4.53-33.43,6.65-50.17,1.84-14.51,2.86-30.44,18.95-36.23,17.15-6.18,33.57,1.89,45.05,13.02,9.24,8.96,15.22,23.13,18.34,36.03,3.09,12.75,1.4,26.85.68,40.29-.95,17.54-9.39,25.02-26.8,25.28-6.75.1-13.5.02-20.25.02v.39Z"/>
  <path class="cls-3" d="M1072.83,2879.04c-3.63,0-8.93.35-14.18-.06-22.15-1.72-29.23-9.23-31.43-31.46-2.59-26.17.29-49.9,24.12-66.62,17.06-11.98,33.07-10.44,45.22,6.18,15.19,20.78,22.5,44.39,22.96,70.08.2,11.05-6.62,16.96-16.41,18.85-9.37,1.81-19.05,1.98-30.29,3.04Z"/>
  <path class="cls-3" d="M904.08,2832.65c1.25-12.93.99-26.28,4.37-38.62,1.74-6.37,9.93-10.99,15.3-16.31.58-.58,1.82-.54,2.78-.68,19.98-2.82,41.14-5.29,54.58,13.12,13.27,18.19,4.05,37.99-2.93,56.4-2.87,7.57-7.6,14.52-12.08,21.36-10.37,15.81-27.85,21.43-45.42,15.05-13.67-4.97-18.4-15.24-16.58-35.8.42-4.8.63-9.62.93-14.43-.31-.03-.63-.06-.94-.09Z"/>
  <path class="cls-3" d="M1365.16,2876.79c20.8.19,28.69,8.54,25.55,25.66-4.16,22.66-7.13,46.06-26.1,62.79-15.31,13.5-33.21,12.99-45.37-3.37-8.28-11.14-15.49-23.47-20.89-36.24-7.72-18.23-.73-31.15,18.29-36.48,17.13-4.8,34.47-8.82,48.51-12.37Z"/>
  <path class="cls-3" d="M1178.63,2766.5c30.29.71,49.94,19.68,52.24,50.43.22,2.88.48,5.76.84,8.62,2.93,23.29-2.88,36.09-18.19,39.96-27.61,6.98-47.77-1.71-55.03-25-4.28-13.73-7.4-27.96-9.46-42.2-3.17-21.98,7.02-32.34,29.6-31.81Z"/>
  <path class="cls-3" d="M1506.8,2721.14c6.5-17.29,10.71-35.96,20.05-51.55,12.97-21.63,34.29-20.78,49.39-.69,26.73,35.55,24.83,50.64-10.06,79.8-.37.31-.75.6-1.12.91-10.38,8.98-20.16,22.58-35.87,15.04-16.9-8.11-18.35-25.56-22.39-43.51Z"/>
  <path class="cls-3" d="M1395.54,2750.22c.86-6.18,1.5-12.41,2.63-18.54,3.53-19.04,12.96-29.52,27.43-30.81,15.88-1.42,32.98,8.75,38.99,24.39,3.6,9.37,6.4,19.24,8.04,29.14,3.43,20.73-15.59,48.86-35.96,54.39-12.23,3.32-21.62-2.09-26.44-12.27-6.87-14.52-11.5-30.09-17.09-45.22.8-.36,1.6-.72,2.4-1.08Z"/>
  <path class="cls-3" d="M1060.65,2925.27c29.47-.68,50.67,13.99,51.03,35.3.56,33.67-15.53,52.04-45.94,52.43-26.47.34-41.26-16.57-41.96-47.96-.63-28.33,9.39-39.14,36.87-39.77Z"/>
  <path class="cls-3" d="M1624.14,2822.64c.3,22.32-5.08,42.96-16.49,62.19-11.54,19.47-36.8,20.21-47.59.06-5.79-10.81-9.16-23.41-11.23-35.6-2.72-15.99,3.47-29.49,17.34-38.64,10.04-6.61,19.84-13.9,30.67-18.92,17.17-7.96,26.65-1.22,27.28,17.89.14,4.33.02,8.67.02,13.01Z"/>
  <path class="cls-3" d="M1468.81,2923.17c-17.53-.14-47.93-30.97-46.56-48.42.44-5.63,3.45-13.3,7.79-15.98,14.58-9.01,29.63-18.14,45.74-23.57,19.75-6.65,37.19,4.65,30.72,27.79-3.34,11.95-4.1,24.59-6.96,36.69-3.38,14.31-16.19,23.6-30.72,23.49Z"/>
  <path class="cls-3" d="M931.12,3199.73c-1.88-5.08-4.46-10.01-5.51-15.26-6.5-32.5-12.53-65.08-18.99-97.59-2.18-10.97.13-18.18,12.73-18.86,14.41-.78,28.83-2.3,43.23-2.22,12.94.07,20.07,8.49,22.58,20.54,2.64,12.7-5.02,20.48-18.03,19-21.86-2.5-25.75,1.72-24.72,24.18.8,17.31.97,34.7.16,51.99-.29,6.28-4.21,12.4-6.47,18.59-1.66-.13-3.32-.25-4.98-.38Z"/>
  <path class="cls-3" d="M984.38,2984.65c.54,18.45-6.79,26.87-20.36,26.08-18.36-1.07-34.79-7.18-47.15-21.7-9.29-10.92-9.83-21.47-.75-32.57,4.22-5.15,9.33-9.76,14.66-13.79,22.58-17.05,30.61-15,41.7,10.83,4.9,11.41,8.89,23.22,11.9,31.14Z"/>
  <path class="cls-3" d="M1643.95,3443.51c0,.96.04,1.93,0,2.89-2.1,50.06-29.45,72.68-79.68,65.45-3.65-.53-6.9-3.88-10.33-5.92,2.13-2.93,3.62-7.29,6.49-8.58,28.68-12.96,41.83-40.09,59.23-63.46,5.07-6.81,11.79-12.38,17.76-18.52,2.25,8.42,4.51,16.83,6.7,25.26.23.9.03,1.92.03,2.88h-.2Z"/>
  <path class="cls-3" d="M2167.94,2401.37c-4.06,6.69-9.93,20.66-19.75,30.81-5.31,5.48-18.1,7.5-26.21,5.56-10.74-2.56-20.87-9.6-30.02-16.38-9.46-7.01-8.61-18.05.97-23.95,13.83-8.51,27.77-16.92,42.2-24.34,19.71-10.14,33.32-1.29,32.8,28.31Z"/>
  <path class="cls-3" d="M859.77,2833.47c-3.56,18.79-8.16,34.57-22.09,46.28-8.98,7.55-19.11,10-29.05,2.95-9.9-7.01-7.8-16.86-5.14-27.35,3.1-12.27,4.69-25.07,5.53-37.73.69-10.25,1.75-21.4,13.04-22.44,7.43-.68,17.63,4.28,22.83,10.08,6.88,7.68,10.09,18.65,14.88,28.2Z"/>
  <path class="cls-3" d="M1133.01,2212.2c-2.26,8.59-2.72,15.77-5.89,21.43-13.56,24.2-30.5,45.66-54.14,61.03-1.61,1.04-3.46,2.46-5.18,2.44-6.2-.07-12.39-.68-18.59-1.08,1.03-6.2.17-13.71,3.41-18.37,12.63-18.14,26.71-35.26,39.93-53,4.87-6.53,7.79-14.89,13.6-20.24,4.25-3.92,12.34-6.73,17.64-5.47,4.09.97,6.49,9.02,9.21,13.26Z"/>
  <path class="cls-3" d="M849.8,3058.79c2.39.15,5.09-.36,7.13.56,8.43,3.82,22.83,7.08,23.69,12.39,1.83,11.32-2.78,23.98-6.36,35.59-.55,1.79-11.19,3.19-14.47.91-8.94-6.21-17.53-13.66-24.08-22.28-3.78-4.97-6.16-14.33-3.98-19.54,2-4.8,10.95-6.7,16.84-9.87.42.75.83,1.5,1.25,2.25Z"/>
  <path class="cls-3" d="M1650.09,2689.35c-9.41-.54-14.63-6.59-14.24-17.74.55-15.82,14.84-29.9,29.98-29.5,10.83.28,15.71,6.37,15.63,16.66-.11,14.62-15.93,30.84-31.37,30.58Z"/>
  <path class="cls-3" d="M833.67,2945.62c.17,12.57-12.88,26.23-25.78,26.24-11.86.01-17.15-7.23-17.52-18.36-.5-14.87,10.53-26.93,24.06-26.72,11.34.18,19.09,7.77,19.25,18.84Z"/>
  <path class="cls-3" d="M510.32,1920.43c15.28,1.55,26.51,2.89,26.79,16.11.08,3.98-7.48,11.15-12.09,11.64-14.57,1.56-29.05-7.64-26.46-15.73,1.81-5.63,9.13-9.5,11.76-12.03Z"/>
  <path class="cls-3" d="M1270.43,3376c-2.32,1.79-6.2,6.98-10.94,7.93-7.93,1.6-18.66-9.77-16.5-17.54,1.15-4.12,6.78-9.08,11.04-9.81,9.23-1.58,16.58,6.36,16.4,19.42Z"/>
  <path class="cls-3" d="M896.37,450.61c-7.98,4.87-13.74,10.08-15.29,9.03-6.1-4.09-10.88-10.16-16.15-15.49,3.66-3.58,9.24-10.85,10.64-10.12,6.46,3.37,11.76,8.98,20.8,16.58Z"/>
  <path class="cls-1" d="M991.97,1135.24c2.04,15.33,4.31,30.64,6.06,46,2.01,17.71,2.89,35.59,5.72,53.16.83,5.13,6.61,9.47,10.12,14.17,4.81-3.96,12.31-7.07,13.92-12.06,4.23-13.13,8.8-27.25,8.07-40.7-3.11-57.76-7.72-115.44-12.56-173.09-1.63-19.43,1.82-25.34,19.84-32.83,22.56-9.38,45.43-18.27,59.73-40.8,8.51-13.41,22.98-12.13,32.16,1.01,2.75,3.94,3.93,9.29,7.31,12.38,4.95,4.53,11.28,10.52,16.92,10.42,4.69-.08,11.61-7.26,13.42-12.67,5.34-15.99,9.06-32.47,1.92-49.42-7.31-17.35,1.47-31.4,14.18-40.49,23.03-16.46,38.63-36.78,46.87-63.92,2.47-8.13,10.15-15.09,16.54-21.49,7.69-7.71,16.28-4.9,17.01,6.07.54,8.25-2,17.02-4.64,25.08-4.45,13.62-6.06,26.78,4.33,38.09,3.54,3.85,10.08,8.03,14.34,7.23,4.17-.78,8.36-7.23,10.41-12.09,2.76-6.57,3-14.17,5.28-21,1.22-3.67,4.47-6.66,6.8-9.95,2.96,2.73,6.67,4.99,8.71,8.29,3.38,5.47,5.69,11.6,8.46,17.45,1.7.18,3.39.35,5.09.53,4.06-10.83,8.13-21.65,12.18-32.48,2.87-7.66,5.45-15.45,8.65-22.97,4.27-10.01,10.73-18.33,23.01-14.97,13.12,3.58,11.2,15.08,10.82,25.2-.82,21.57-2.12,43.14-2.24,64.71-.03,4.88,3.94,9.78,6.07,14.68,3.15-4.75,7.45-9.13,9.16-14.36,2.06-6.29,2.62-13.29,2.61-19.99-.02-18.38,10-30.56,23.87-40.53,7.72-5.55,13.51-2.38,15.02,5.77,1.28,6.89.31,14.38-.63,21.47-5.44,41.11-11.75,82.12-16.43,123.31-1.44,12.71.16,26.13,2.72,38.74.99,4.89,8.44,11.65,13.05,11.73,4.72.08,12.11-6.08,13.86-11.07,4.59-13.13,5.79-27.44,10.29-40.61,2.15-6.29,8.71-11.07,13.27-16.54,4.8,5.81,9.88,11.42,14.24,17.55,1.54,2.16,1.37,5.56,1.9,8.4,6.5,35.17,33.46,47.98,66.22,31.52,7.71-3.87,15.98-13.45,24.01-2.7,7.54,10.09,2.36,20.72-5.06,28.91-5.75,6.35-14.4,10.24-19.56,16.92-4.14,5.36-7.48,13.75-6.29,19.86.65,3.32,11.59,6.95,17.64,6.55,43.25-2.8,72.17,20.75,95.34,52.63,10.29,14.17,16.17,31.63,23.47,47.86,5.15,11.44,10.5,19.53,25.89,16.6,15.27-2.91,28.05,12.11,21.81,26.84-5.8,13.69-15.68,26.34-26.26,36.96-3.94,3.95-15.24,2.22-22.68.67-11.71-2.44-22.84-7.53-34.49-10.42-21.37-5.29-37.66-16.51-46.91-36.95-7.52-16.6-16.54-20.72-31.99-11.63-12.74,7.49-23.67,18.01-35.72,26.75-16.39,11.9-20.78,11.6-36.8-1.03-16.14-12.72-25.92-11.83-39.69,3.63-15.45,17.34-19.08,16.94-38.17,3.13-6.22-4.5-16.35-7.13-23.82-5.77-29.67,5.4-55.76,41.67-53.54,72,1.8,24.65,12.96,35.12,37.53,33.08,24.04-2,47.88-6.41,71.93-8.13,67.63-4.84,135.21-2.59,201.97,8.92,34.45,5.94,69.51,13.57,101.56,26.97,48.5,20.27,86.67,54.97,114.67,100.37,30.27,49.08,44.71,102.52,43.23,159.65-1.01,38.93-4.06,78.01-9.39,116.58-6.31,45.6-35.76,78.33-68.78,107.42-32.57,28.71-70.66,47.44-112.06,60.99-73.04,23.91-147.89,24.49-222.1,14.28-56.02-7.71-111.58-22.79-160.95-53.27-22.07-13.62-44.24-27.2-65.34-42.22-27.25-19.4-45.72-46.42-61.73-75.44-5.98-10.84-13.39-21.27-21.9-30.23-9.56-10.08-21.34-7.24-26.14,5.91-6.26,17.17-12.55,34.58-15.89,52.43-1.6,8.54,2.02,19.05,5.89,27.46,15.17,33,38.91,58.7,71.22,75.4,15.21,7.86,19.82,20.16,20.35,35.39,1.01,28.93,1.86,57.88,2.35,86.82.12,7.18.22,15.09-2.51,21.44-9.44,21.97-14.42,44.55-16.14,68.44-.98,13.57-14.59,17.46-26.22,6.25-16.51-15.91-31.52-33.69-45.18-52.14-10.53-14.24-18.55-30.48-26.5-46.41-2.42-4.85-3.21-13.31-.51-17.12,2.56-3.61,10.87-5.02,16.29-4.38,19.11,2.24,26.95-6.11,19.26-24.02-3.79-8.83-10.78-17.25-18.36-23.3-19.86-15.87-27.15-27.86-9.93-49.34,8.21-10.24,7.12-21.58.85-32.58-8.8-15.44-19.41-30.11-26.19-46.38-16.81-40.37-33.18-81.04-47-122.5-5.13-15.39-3.81-33.35-3.3-50.07.53-17.45-5.35-31.34-18.32-41.98-3.86-3.17-11.8-5.64-15.39-3.74-4.4,2.32-8.66,9.6-8.63,14.7.08,12.44,3.42,24.83,4.04,37.31.55,10.97.86,22.49-1.98,32.88-1.57,5.75-9.33,12.22-15.29,13.42-3.38.68-11.45-8.01-12.77-13.58-4.77-20.16-7.43-40.81-11.19-61.22-2.01-10.93-5.83-21.91-19.18-21.57-13.36.35-18.28,10.67-20.13,22.63-1.4,9.06-1.2,18.9-4.83,26.99-17.85,39.79-2.25,72.88,18.59,105.77,10.81,17.05,20.08,35.12,29.4,53.07,4.67,8.99,5.73,18.66-2.16,26.94-7.97,8.37-17.16,6.34-26.85,3.22-35.75-11.52-48.79-39.48-53.94-73.36-6.22-40.87-4.2-81.69-1.44-122.76.89-13.29-4.46-28.65-11.38-40.47-15.9-27.17-11.1-42.43,19.98-48.85,16.93-3.5,34.43-4.38,51.71-6.04,19.95-1.91,29.38-12.58,25.29-32-5.73-27.16-6.33-55.9-22.75-80.08-4.03-5.94-7.16-12.59-11.74-18.04-8.68-10.32-10.09-20.79-1.94-31.61,24.36-32.35,32.78-69.09,31.76-108.91-.81-31.85-.56-63.72-.62-95.58-.01-5.5.8-11.01,1.23-16.51,2.24-.2,4.49-.39,6.73-.59ZM1264.23,1708.38c1.05,6.01,1.62,9.8,2.38,13.56,5.99,29.69,29.46,40.04,54.4,47.54,12.5,3.76,23.45-7.79,20.7-22.13-5.01-26.11-16.28-49.48-37.61-66.45-11.38-9.06-24.75-6.32-31.97,6.42-3.93,6.94-5.73,15.09-7.9,21.05ZM1321.92,1087.08c1.97-.03,3.94-.05,5.91-.08,1.19-5.16,3.23-10.29,3.44-15.49,1.44-36.98,2.83-73.96,3.54-110.96.33-17.28-.44-34.63-1.71-51.87-.44-5.94-3.92-11.66-5.84-16.99-11.51,8.09-21.61,13.78-29.78,21.51-4.35,4.12-7.76,12-7.23,17.78.66,7.18,4.2,15.63,9.34,20.59,21.69,20.96,21.68,46.78,19.46,73.78-1.22,14.82-1.49,29.77-1.27,44.64.08,5.71,2.69,11.39,4.15,17.08ZM1260.76,1035.15c-7.2-7.24-11.31-14.99-16.35-15.66-9.85-1.3-13.13,7.82-11.4,15.7,1.3,5.93,6.79,10.94,10.41,16.36,4.92-4.65,9.83-9.29,17.34-16.39ZM1311.89,1319.8c1.44-2.34,2.89-4.68,4.33-7.02-4.13-1.35-8.48-4.17-12.31-3.57-2.77.43-6.79,5.47-6.67,8.3.13,3.04,4.45,5.9,6.94,8.84l7.71-6.54Z"/>
  <path class="cls-1" d="M2614.12,1119.35c-8.22-2.55-16.52-4.87-24.63-7.71-16.84-5.89-33.41-12.62-50.42-17.96-18.19-5.71-32.68,5.92-47.67,12.79-27.12,12.44-53.63,26.21-80.26,39.68-4.62,2.34-9.83,5.1-12.67,9.15-29.58,42.06-72.18,69.04-112.65,98.61-19.92,14.55-38.63,30.55-47.45,54.98-1.45,4.01-4.26,7.55-6.56,11.23-9.11,14.6-19.45,19.15-30.74,13.6-11.95-5.88-19.84-21.8-13.25-34.49,8.08-15.56,18.01-31.16,30.58-43.13,16.17-15.41,35.76-27.25,53.87-40.63,24.33-17.97,51.51-33.18,72.33-54.57,31.3-32.17,70.15-52.18,106.54-76.33,17.25-11.45,33.76-24.27,51.94-33.97,9.6-5.12,23.42-9.22,33-6.24,32.49,10.09,64.11,23.11,95.67,35.99,9.16,3.74,11.28,12.91,7.84,22.29-4.23,11.54-13.14,16.06-25.44,16.72Z"/>
  <path class="cls-1" d="M2245.09,826.43c.97,64.04-19.52,123.64-37.04,183.8-4.78,16.43-16.49,27.62-32.29,32.62-7.26,2.3-19.17,2.36-23.5-2-4.47-4.5-4.61-16.22-2.61-23.7,6.61-24.61,16.09-48.45,22.54-73.09,9.65-36.85,18.05-74.04,26.25-111.24,7.34-33.27.8-61.71-28.48-83.37-21.5-15.9-33.59-39.43-43.91-63.61-1.49-3.5-2.94-7.52-2.67-11.17.57-7.77,2.28-15.46,3.52-23.18,7.64,1.36,16.26.87,22.76,4.35,68.08,36.44,95.26,96.19,95.43,170.57Z"/>
  <path class="cls-1" d="M2125.46,555.09c-8.97,25.11-18.42,45.91-36.5,59.92-6.31,4.89-20.19,4.99-27.84,1.39-5.06-2.38-7.15-15.26-7.12-23.43.08-22.84,12.43-40.46,30.06-53.09,6.47-4.63,18.65-5.72,26.27-2.98,6.68,2.39,10.63,12.4,15.13,18.2Z"/>
  <path class="cls-1" d="M2252.84,1575.74c-4.18,5.93-7.57,14.97-13.85,17.99-3.48,1.67-13.98-5.35-17.42-10.87-5.05-8.14-8.47-18.35-8.93-27.86-.25-5.14,6.42-14.25,11.13-15.1,6.03-1.08,15.7,2.53,19.33,7.43,5.08,6.84,6.04,16.75,9.73,28.41Z"/>
  <path class="cls-1" d="M1622.08,2022.84c-2.01-2.2-8.22-7.38-7.54-8.55,4.26-7.32,10.05-13.74,15.34-20.46,3.6,3.6,9.59,6.78,10.32,10.89,1.87,10.48-5.11,15.62-18.12,18.13Z"/>
  <path class="cls-1" d="M1749.78,1242.79c8.83-5.88,14.55-9.7,20.28-13.51,2.48,3.85,7.94,9.31,6.9,11.24-3.31,6.08-9.05,10.84-13.86,16.12-3.43-3.56-6.85-7.12-13.32-13.84Z"/>
  <path class="cls-1" d="M1999.14,2467.33c-4.49,16.93-8.21,31.79-12.42,46.52-2.37,8.31-6.96,16.21-8.02,24.62-2.35,18.57-15.22,29.61-27.29,41.18-7.13,6.82-15.01,3.41-16.25-6.31-.3-2.33-.32-4.99.5-7.14,13.45-35.38,26.78-70.82,41.03-105.88,1.61-3.97,8.64-5.73,13.15-8.52,3.16,5.27,6.32,10.53,9.31,15.52Z"/>
  <path class="cls-3" d="M1264.23,1708.38c2.16-5.96,3.96-14.11,7.9-21.05,7.22-12.74,20.58-15.48,31.97-6.42,21.34,16.97,32.6,40.34,37.61,66.45,2.75,14.33-8.19,25.89-20.7,22.13-24.94-7.51-48.41-17.86-54.4-47.54-.76-3.76-1.33-7.56-2.38-13.56Z"/>
  <path class="cls-3" d="M1321.92,1087.08c-1.46-5.69-4.06-11.37-4.15-17.08-.21-14.88.05-29.82,1.27-44.64,2.22-27,2.22-52.82-19.46-73.78-5.14-4.96-8.68-13.42-9.34-20.59-.53-5.78,2.88-13.67,7.23-17.78,8.17-7.73,18.27-13.42,29.78-21.51,1.92,5.34,5.4,11.05,5.84,16.99,1.27,17.24,2.04,34.59,1.71,51.87-.7,37-2.1,73.98-3.54,110.96-.2,5.2-2.24,10.33-3.44,15.49-1.97.03-3.94.05-5.91.08Z"/>
  <path class="cls-3" d="M1260.76,1035.15c-7.51,7.1-12.43,11.75-17.34,16.39-3.62-5.42-9.11-10.43-10.41-16.36-1.73-7.88,1.55-17,11.4-15.7,5.04.67,9.14,8.42,16.35,15.66Z"/>
  <path class="cls-3" d="M1311.89,1319.8c-2.57,2.18-5.14,4.36-7.71,6.54-2.49-2.94-6.81-5.8-6.94-8.84-.12-2.83,3.91-7.87,6.67-8.3,3.83-.59,8.18,2.22,12.31,3.57-1.44,2.34-2.89,4.68-4.33,7.02Z"/>
  <text class="cls-2" transform="translate(1243.93 1528.69)"><tspan x="0" y="0">FF7518</tspan></text>
</svg>