<?xml version="1.0" encoding="UTF-8"?>
<svg id="Layer_1" data-name="Layer 1" xmlns="http://www.w3.org/2000/svg" version="1.1" viewBox="0 0 2870.7 3513.2">
  <defs>
    <style>
      .cls-1 {
        font-family: MyriadPro-Black, 'Myriad Pro';
        font-size: 12px;
        font-weight: 800;
      }

      .cls-1, .cls-2 {
        fill: #000;
      }

      .cls-1, .cls-3 {
        isolation: isolate;
      }

      .cls-2, .cls-4 {
        stroke-width: 0px;
      }

      .cls-4 {
        fill: #fff;
      }
    </style>
  </defs>
  <path class="cls-2" d="M828.9,3452.4c-44.7-1.4-89.9-4.6-133.6-13.6-50.8-10.5-93.7-38.1-117.2-86.5-17.7-36.5-22.7-76.6-18.7-117.2,2.4-25,5.9-49.9,8.8-74.8,6.5-56.1-14.3-99.6-59.6-132.7-14.3-10.5-27.8-22.6-39.8-35.6-17.1-18.5-28.4-40.2-26.8-66.6,1.6-27.9,5-55.9,4.4-83.7-.7-30.2-1.6-61.2-9-90.1-13.4-52.1-14.5-105.1-18.2-157.9-3.1-44.1-5-46.1-49.3-52.7-47.7-7.1-95.4-14.7-139.1-37.4-36.6-19-69.4-43.7-98.7-72.3-7.4-7.2-11.1-20.7-11.9-31.7-2.6-38-2.9-76.2-4.7-114.3-2.9-64.6-2.1-129.7-10.5-193.5-10.3-77.8-27.1-154.9-43.9-231.7-14.3-65.4-33.9-129.7-49-195-16.9-72.9-14.7-146.1-2.6-220,15.6-95.2,27.3-191.1,40.9-286.6,12.5-87.4,24.3-174.8,38.4-261.9,6.5-39.9,14.9-79.9,27.8-118.1,15.1-44.5,34.8-87.6,54.6-130.3,38.3-82,94.9-151,161.4-211.2,42.7-38.8,88.8-74,135-108.8,54.7-41.2,115.7-72.5,175.7-105.3,30.4-16.6,59.7-35.2,89.9-52.2,74.3-41.9,147.9-85.4,232-105.6,54.3-13,108.8-25.2,163.3-37.7,21.2-4.9,44.4-5.9,62.9-15.8,31.4-16.9,63.7-10.1,95.4-10.4,111-1.1,222.1-.1,333.2.5,6.7,0,13.3,4.9,20.1,7.2,9.1,3.1,18.1,6.7,27.4,8.5,68.2,13.3,136.8,24.8,204.7,39.5,72.2,15.7,142.8,38,210.3,68.2,61,27.3,120.9,57.2,175.8,96,33.4,23.6,68.6,44.8,101.1,69.7,29.7,22.8,57.1,48.9,84.9,74.2,9.5,8.6,18,14.9,32,11.1,12.5-3.4,19.5,6.4,25.2,15.4,27.4,43.2,60.7,81.1,100.6,113,12.8,10.2,27.8,18,39.2,29.5,19.8,20.1,39.9,40.8,55.7,64,21.3,31.3,39.2,65.1,57.5,98.4,9,16.4,16.7,33.8,23.2,51.4,26.9,72.5,46.4,146.7,57.9,223.5,29.8,199.3,38.7,399.5,33.9,600.6-2.2,94.8-13,188.8-26.4,282.4-7.2,50.4-20.5,100-32.7,149.6-8.9,36.4-18.1,73.1-31.6,108.1-14.7,38.1-31.9,75.7-52.5,110.8-18.9,32.1-43.4,61.1-66.6,90.6-9.1,11.6-22.9,19.6-32.2,31-18.9,23-35.4,47.8-54.3,70.9-32.3,39.6-65.4,78.5-98.6,117.4-13.4,15.8-28.1,30.5-41.5,46.4-11.9,14.1-26.9,17.7-44.1,16.1-16.8-1.6-33.6-3.5-50.4-4.6-59.8-3.9-94-34.1-104.8-92.9-.9-4.7-1.3-9.6-1.9-14.3-1.3-9.9-5.8-19.9-16.1-18.5-6.3.8-15.2,10.2-16.2,16.8-7.4,45.2-14.5,90.5-18.9,136.1-6.9,71-8.2,142.8-18.2,213.3-8.2,58-25.1,114.9-49.6,168.8-10.3,22.8-18.7,46.6-30.2,68.7-24.6,47.5-54.6,90.5-101.9,119.3-38.8,23.6-80.8,37.7-124.7,48.2-27.5,6.6-33.8,16.7-34.3,45.3-.4,23.2-80.8,68.2-218.4,107-54.8,15.5-133.2,34.1-197,43.6-253.5,37.6-545.7,21.6-577.4,20.6h0ZM2257.2,384.6c-1.4,1.5-2.7,3.1-4.1,4.6,2.6,8.1,6,16,7.5,24.2,1.3,7,.3,14.3.3,21.5-6.7-1.2-14.6-.6-20-3.9-13.9-8.5-27.3-18.1-39.8-28.6-22.8-19-42.7-41-54-68.7-9.3-22.9-15.6-25.4-35-9.4-18,15-26.6,11.1-32-12.1-2.5-10.8-7.1-23-14.8-30.3-17.8-16.9-41.7-21.3-65.5-23.1-3.7-.3-10.4,3.7-11.1,6.8-1.1,4.9-.3,12.8,3,15.7,6.2,5.5,15,8,22.2,12.5,8.2,5.1,18.3,9.5,23.2,17.1,10.6,16.4,19.2,34.3,27.3,52.1,12.8,28,24.8,56.4,36.3,84.9,2.7,6.8,3.4,15.1,2.6,22.5-1,9.2-7.6,14.1-17.4,13.8-15.7-.5-42.6-19.8-48-34.8-6.5-18.2-12.8-36.4-18.9-54.7-7.4-22-22-39.2-41-50.9-22.8-14.1-37-33.8-50.3-56.2-20.3-34.1-21.7-42-66.4-32.5-22.2,4.7-44.5,8.9-66.9,12.6-17.2,2.8-30.9-2.3-43.8-15.9-15-15.9-32.8-29.8-51-42.1-17-11.5-33.8-7.8-48.3,7-3.7,3.8-7.2,7.9-10.4,12-10.7,13.6-23.8,20.9-41.9,21.7-93.1,4.1-186.1,9.1-279.1,13.8-21.2,1.1-28.1,8.1-28.6,29.4-.6,26.5-10.4,35.5-37,33.9-4.3-.3-8.6-1.1-12.9-1.8-43.9-7.1-88-14.7-132.4-7-42.6,7.3-82.7,20.9-109.2,58.3-6.5,9.2-13,19.8-15.1,30.7-6.4,32.1-12.5,64.5-15.4,97.1-4.6,51.5-8,103-25,152.4-3.1,9.1-6.4,17.8-18,17.6-12-.2-16.8-8.6-18.5-18.8-2.1-12.8-3.4-25.8-4.5-38.8-2.6-33.2-4.7-66.4-7.4-99.6-.9-11-1.4-23.5-16.3-25.1-8.5-1-17.7-1.4-25.9.7-6.2,1.6-13.3,6.5-16.2,12-1.6,3.1,4,10.5,7.1,15.5,2.3,3.6,6.9,5.9,8.6,9.7,3.1,7.1,8.5,16.4,6.1,21.8-2.4,5.3-12.9,7.6-20.3,10.1-18.6,6.4-37.7,11.3-55.8,18.9-5,2-7,11.1-10.4,17,6,2.7,12,7.4,18.1,7.5,10.5.1,21-3.5,31.5-3.8,4.5-.1,11.1,3,13,6.7,1.8,3.4-.9,9.6-2.5,14.3-.9,2.6-3.4,4.6-5.3,6.8-18.9,22.3-19.9,29.7-6.5,55.7,4.9,9.5,4.3,18-4,24.7-6.6,5.4-14.2,9.7-21.5,14.1-26.3,15.8-53.2,30.7-78.9,47.5-9.4,6.2-16.5,16.2-23.4,25.5-2.6,3.4-1.7,9.5-2.4,14.3,4.5-.2,9.7,1,13.3-.9,10.2-5.4,19.7-12,29.5-18.2,7.7-4.9,15.1-10.6,23.3-14.5,3.7-1.8,10.3-1.9,13.1.3,2.9,2.3,4,8.5,3.6,12.8-.5,4.5-2.8,9.6-5.9,12.9-10.9,11.5-22.2,22.7-34.1,33.2-10.8,9.6-23.2,17.5-33.4,27.6-11.6,11.5-7.3,23.5,8.7,27.5,8.4,2.1,17.6,2.1,25.4,5.5,6.4,2.8,14.6,8.6,15.8,14.3,1.1,5.4-4.8,13.4-9.5,18.7-7,7.8-17,13.2-23,21.6-5.2,7.2-6.8,17.2-9.9,25.9,7.8,1,15.7,3.4,23.3,2.8,12.8-1,18.6,4.1,17.7,16.3-1.2,16.8-3.5,33.6-4.9,50.4-.7,8.3-4.1,18.8,8.2,21.4,11,2.4,17.9-3.9,22.5-14,2.7-6,6.1-12.8,11.1-16.3,4.8-3.4,13.9-5.8,18-3.4,3.8,2.2,5.3,11.5,4.8,17.5-.7,8-5,15.6-6.4,23.7-6,34.2-11.2,68.6-17.1,102.8-5.9,34.7-12.8,69.3-17.9,104.1-1.1,7.7,1.2,17.4,5.5,23.7,2.1,2.9,13.8,1.8,19.4-1,22.5-11.4,34-7.1,42.4,16.9,4,11.3,9.8,21.9,14.3,33.1,7.5,18.5,13.8,37.4,8.2,57.7-8.5,31.1-17.2,62.2-26.7,93-17.6,57.6-36.1,114.9-53.5,172.6-11.9,39.2-22.5,78.8-34.1,118.1-4.1,13.8-9,27.4-14.3,40.8-4.4,11-9.8,22.2-1,32.7,8.7,10.3,20.8,7.2,32.4,5.5,31.3-4.5,56.4-21.3,81-39.4,31.4-23.1,41.1-21.9,69.9,4.6,58.9,54.4,109,116.2,151.8,183.5,22.8,35.9,40.7,75.2,58.7,114,11.3,24.3,19.9,29.8,45.8,20.2,2.7-1,5.4-2.1,8.2-2.7,19.9-4.4,30.2,2.1,31.3,22.3,1.5,28.9,3.1,58,1.2,86.7-7,105.9-16.5,211.7-22.6,317.7-1.9,33.4,2,67.5,7.1,100.8,3.8,24.6,30.7,34.5,51.9,21.4,11.4-7.1,23.4-14.6,31.8-24.7,5.9-7.2,9.7-19.5,8.4-28.7-4.5-32.4-10.8-64.5-17.9-96.5-3.7-16.9,1.7-28.2,13.9-39.5,7.7-7.2,14.8-17.7,16.8-27.7,12.8-67.8,17.9-135.8,2.8-204.1-1.4-6.5-2.7-13.5-1.7-20,.8-5,4.2-12.1,8.1-13.5,4.1-1.5,11,1.7,15.4,4.7,13.6,9.4,11.9,23.8,11.7,38-.6,34.7-.9,69.4-.4,104.1.4,30.4,3.1,60.8,2.8,91.2-.4,51.1-2.6,102.3-3.6,153.4-.5,25.9,11.6,34.8,35.7,26.2,27.3-9.6,54.4-19.6,81.5-29.9,10.5-4,21.5-8.6,20.4-22.8-1-13.6-12.1-17.5-22.9-20.9-3.6-1.1-7.6-1.3-11.4-2.1-7.1-1.5-14.4-2.5-21.1-5.1-13.9-5.2-23.9-25.4-18.9-39.9,5.9-17,17.8-6.6,27.7-4.5,13.2,2.8,20.7-3.6,21.7-17.6.7-10.1,1.8-20.2,3.6-30.1,6.3-34.6,13.5-69.1,19.3-103.9,5.1-30.5,8.5-61.1,33-84.4,4.7-4.5,6.4-17.9,3.1-23.4-3.8-6.4-14.4-11.4-22.4-12-22.6-1.8-43.4,18-48.5,43.5-4.3,21.3-7.7,42.8-13,63.8-1.6,6.4-8.2,11.5-12.5,17.2-2.3-5.8-5-11.6-6.8-17.6-.9-3.1,0-6.7-.3-10.1-2.7-32.2-4.3-64.6-8.6-96.6-9.5-70.9-28.3-139.8-50.2-207.8-13.8-43-25-87.1-60.7-119.5-13.8-12.6-8.6-27.3,13.1-49.1,11.2-11.2,18.3-10.6,33.7,1.7,15,12.1,30,24.2,45.8,35.2,31.5,22.1,63.9,42.9,95.3,65.2,15.2,10.7,30.1,17.1,48.4,9,7.9-3.5,16.1-6.6,24.1-10,10.8-4.6,20.3-2.3,23.5,9,7.6,26.8,26.2,37.9,52,43.3,45.8,9.5,90.6,25,136.7,30.8,91.4,11.5,183,7.6,273.9-9.3,18-3.4,32.1-10.2,45.4-22.7,8.6-8.1,20.6-13.6,32.1-17.3,17.4-5.7,23.6-13.1,22.9-31.3-.8-23.1.1-46.2-1.5-69.2-.9-12.7-2.7-26.7-8.9-37.2-13.7-23.2-30.2-44.7-46-66.6-26.4-36.7-43.5-76.4-38-122.8,6.1-50.6-7.7-96.4-31.8-140-14.9-27-30.8-53.4-44.6-80.9-9.2-18.4-17.9-37.8-22.6-57.7-16.6-70.3,9.8-126.5,61.1-173.3,36.3-33.1,72.8-65.9,109.4-98.7,5.3-4.8,11.5-8.8,17.9-12.2,10.2-5.5,17-.9,16.1,10.9-.4,4.7-2.1,9.4-4.2,13.7-9.7,19.9-19.3,39.9-29.6,59.5-17.5,33.2-35.1,66.3-53.6,98.9-6.5,11.5-6.7,21.1,2.9,29.8,9.9,8.9,15.6,19.1,15.5,32.8,0,3.1,5.7,8.8,8.9,8.9,22.3.6,29.5,7.9,27.8,29.6-3.5,45.4-9.7,90.3-26.3,133-7.4,19.1-3.9,34.7,11.3,48.2,9.7,8.6,13.2,19.3,11,32.6-7.3,43.6-7.1,43.8,34.7,56.7,19.4,6,31.3,18.5,34.6,38.6,4.5,26.8,8.4,29.9,35.1,26.4,15.2-2,24,4,27.5,18.8,1.1,4.7,2.1,9.5,3.8,13.9,7.3,19,16.9,22.2,36.2,17.4,44.9-11.2,90-21.5,135.2-31.2,34.1-7.3,72.6-29.1,68.8-73.6-2.1-24.7,11.6-45.2,26.2-62.7,23.7-28.5,50.2-54.6,76.2-81,12.9-13.2,19.5-27.3,18.9-46.4-1.1-40.9-.5-81.9-.1-122.9.2-20,7.7-36.4,24.7-48.2,15.4-10.7,18.6-26,15.6-43.6-2.2-12.8-4.1-25.7-5.7-38.6-2.7-22.4,4.9-41.8,18.4-59.2,8.3-10.7,17.8-16.3,31-7.7,10.1,6.6,12.6-.3,11.2-8.1-1.9-10.8-5.8-21.3-8.7-32-1.6-6-4.2-12-4.3-18.1-1.2-55-2.8-110-2.6-165.1,0-21.5-5.7-37.8-22.8-51.6-26.8-21.7-47-47.8-50.8-84.3-1.3-13-7.3-26.2-13.9-37.7-16.4-28.9-33.8-57.3-51.7-85.2-20.1-31.2-40.9-61.5-46.7-99.8-6.9-45.3-8.8-45.9-53.7-47.6-16.1-.6-24.2-7.5-22.9-23,1.2-14.1-5.4-21.7-15.1-30.3-19.1-16.9-39-33.7-54-53.9-18.2-24.5-39.6-44.8-64-62-7.7-5.5-17.8-7.7-26.7-11.4h0ZM1218.8,3282.6c2-1.1,4-2.2,6-3.4,10.6,8.7,21.8,16.7,31.5,26.2,12.4,12.2,23.6,14.2,37.6,8,11-4.9,23.3-7.1,35.2-9.8,10.7-2.5,23-1.6,32.2-6.6,34.2-18.6,68.1-37.9,100.6-59.2,17.1-11.2,34.3-15.8,54.2-16.8,12.6-.6,25.6-4,37.3-8.9,34.1-14.5,66.9-32.3,101.6-45.2,35.6-13.3,72.5-23,109.2-33.2,49.8-14,100.2-19.3,151.7-8.3,17.2,3.6,32.4-6.7,31.8-22.9-1.4-42.8,24.3-75.2,39.1-111.9,11.5-28.5,22.8-57.2,32.4-86.4,2.4-7.3-2-16.8-3.2-25.2-6.4,4.2-12.5,9.1-19.4,12.5-5.8,2.9-14.4,7.7-18.3,5.4-4.4-2.6-7.6-12.2-6.8-18.1,1.8-12.3,6-24.3,10.2-36.1,16-44.4,33.2-88.4,48.1-133.1,4.7-14.2,4.4-30.3,4.5-45.6,0-7.9-4-15.6-15.2-9.4-13.5,7.5-20.1,4.5-20.3-10.8-.7-52.4,10.6-100.5,52-137.1,19.7-17.4,20.9-24.4,11.3-49.4-11.9-31-23.5-62.1-34.9-93.2-5.7-15.4-1-24.8,13.6-33.3,10.8-6.2,21.6-13.1,30.6-21.5,13.1-12.3,11.1-27.7-3-38.4-30.8-23.3-65.1-20.1-99.7-12.3-4.2.9-9.3,5.1-10.8,9-8.6,22.9-16.9,46-23.8,69.4-3.1,10.5,2.2,19.3,12.6,25.1,4.4,2.5,10.3,9.9,9.3,12.8-3.7,10.3-9.4,27.3-15.7,27.9-22.2,2.1-26.8,17.2-30.6,33-8,32.8-13.8,66.1-22.1,98.9-20.1,79-40.6,157.9-62.1,236.5-21.8,79.8-50.8,156.9-96.7,226.4-29.3,44.4-66.9,78.4-121.3,89.2-19.2,3.8-37.9-5.7-43.5-22.2-4.2-12.2-9.2-24.2-15.1-35.7-7-13.8-5.7-21.9,7.3-30.8,6-4.1,13.2-6.9,17.9-12.1,5.3-5.9,8.4-13.8,12.4-20.9-7.2-4-14.1-10.3-21.8-11.5-56.4-9.3-107.6,8-153.6,37.9-28.4,18.5-55.7,27.5-89.5,23-24.8-3.3-51.1-7-74.1,9.8-3.2,2.3-8.2,2.8-12.5,3-12.5.6-18.8-6.9-13.9-18.3,4.1-9.6,10.1-18.8,17.1-26.6,11.6-12.8,15.1-27.6,15.1-44,0-27.3-8.3-34.5-34.9-30.3-5.7.9-11.3,2.9-17,3.3-22.5,1.6-34.5,14.9-43.9,34.3-10.8,22.4-24.3,43.6-37.5,64.7-19,30.2-31.5,61.8-25.7,98.4,1.7,10.5,2.7,21.1,3.4,31.7.4,5.7,1.1,12.5-1.5,16.9-3.6,6-10,13.6-15.7,14-5.3.4-13.2-6.6-16.3-12.4-3.7-6.8-3.6-15.7-4.7-23.8-1.6-11.4-1.2-23.5-5-34.2-2.7-7.6-10.7-13.2-16.4-19.7-2.8,7.5-8.2,15.1-8.1,22.6.5,39.6,1.8,79.1,4.4,118.6.6,8.3,6.6,17.9,12.8,24,14.8,14.4,31.6,26.8,47,40.6,12.5,11.2,23.2,13.5,38.1,5.3,7.6-4.1,14.4-9.8,22-13.9,14.7-8.1,24.5-4.1,34.4,9.3,9.1,12.3,20.6,22.8,31,34.1,1.3-.7,2.7-1.3,4-2-1.6-12.6-3.1-25.2-4.7-37.8h0ZM2708.9,1211.8c-1.8.4-3.6.8-5.3,1.3-.6,4-1.9,8.1-1.8,12.1.7,19.3,2.1,38.5,2.8,57.8,3.8,106.1-12.7,209.7-41.8,311.3-14,49-28.6,98.1-46.8,145.6-20.3,53-48.6,101.9-92,140.2-17.9,15.8-37.1,31.3-61.7,32.3-34.1,1.3-68.4,1.1-102.3-2.1-52.5-5-104.8-8.7-157.3-1.3-21.4,3-33.4,17.4-26.4,35.9,6.2,16.5,14.4,33.2,25.7,46.4,6.6,7.8,20.8,10.3,32.1,12.3,7,1.2,14.9-3,22.4-4.7,25.6-5.7,51.3-11.5,76.3,1.9,17.3,9.3,31.3,21.9,31.6,43.3.3,21.3,11.3,30.1,31.1,21.9,21.4-8.8,42.8-17.9,62.6-29.6,22.7-13.4,46.6-15.1,71.3-12.8,32.3,3,39.9,0,53.3-29.1,9.4-20.5,23.5-32.3,46.4-33.2,6.7-.3,13.3-2.1,20-3,20.2-2.9,29.9-16,33.7-34.7,2.4-11.8,4.6-23.7,6.2-35.6,2.8-20.1,15.5-32.1,32-42,8-4.8,15.9-11.2,21.4-18.6,12.7-17.3,21.4-36.6,21.6-58.8.2-32.8,1.2-65.6.3-98.3-.2-9.1-6-18-9.2-26.9-4.3-12.1-10-23.9-12.4-36.4-3.1-16-3.7-32.6-5-48.9-4.2-52.3-.6-101.8,40.2-142.3,18.2-18,14-36.9-3.9-55.6-10.5-11-21.8-23.1-27.1-36.9-12.2-31.7-20.9-64.8-31.2-97.2-1.6-4.9-4.4-9.5-6.7-14.2h0ZM2716.9,2091.9c.8-.9,1.7-1.7,2.5-2.6-5.3-6.6-9.6-14.7-16.2-19.5-11.2-8.2-24.1-14.1-36-21.4-18.7-11.5-32.7-6.7-38.7,14.4-4.8,16.7-8,33.8-12.6,50.5-10.8,39.9-20.2,80.4-33.6,119.5-14.7,42.9-53.1,44.6-84.1,16.8-10.9-9.8-18.2-23.6-28.6-34.1-12.7-12.9-27.4-10.7-38.2,3.8-9.5,12.7-9.8,27.1-7.3,41.6,2.9,17.1,7.3,33.9,10.6,50.9,3.7,19.3-2.8,31.2-19.4,36.8-24.6,8.3-49.3,16.5-73.9,25-18.4,6.4-22.9,14.9-17.3,33.2,2.7,8.7,6.4,17.2,10.2,25.4,8.8,18.8,13.5,36.2-3,54.7-13.3,14.9-9,30.9,7.6,41.5,20.5,13,28.8,13.8,48.2-2.5,39.1-32.9,79.6-64.7,114.9-101.4,40.7-42.2,77.4-88.4,114-134.3,43.9-55.1,73.7-118.2,97.1-184.4,1.6-4.5,2.4-9.3,3.5-14h0ZM837.5,2639.1c0,25.1-1,50.2.3,75.3,1,20.7,7.7,26.3,27.4,28.1,4.8.4,9.7.9,14.5.8,69.3-2.8,139.1.1,207.5-15.6,22.5-5.2,34-14.4,38.8-37.1,3.2-15.1,6.2-30.3,8.4-45.6,8.2-56.2,10.4-113.5,30.1-167.7,9.4-25.9,6.3-48.4-14.8-68.6-16.1-15.4-26.5-17.2-42.7-1.2-15.4,15.3-30.6,30.9-45.9,46.3-10,10.1-14.9,21.6-14.1,36.4,2.3,39.5,3.9,79,5,118.6.2,7.9-.9,17.4-5.2,23.5-13.3,18.8-26.8,38-43.4,53.7-20.9,19.8-43.3,11.9-51.9-15.9-3.4-11-5.2-22.6-8.4-33.7-14.1-48.1-28.6-96.1-42.5-144.2-3.6-12.5-3.9-26.2-9-37.9-3.1-7.1-12.4-11.6-19-17.2-4.8,6.1-9.9,12-14.1,18.4-1.7,2.6-1.4,6.5-2.1,9.8-11,57.4-22,114.8-18.9,173.7h0ZM1313.4,2837.3v-.4c6.8,0,13.5,0,20.2,0,17.4-.3,25.8-7.7,26.8-25.3.7-13.4,2.4-27.5-.7-40.3-3.1-12.9-9.1-27.1-18.3-36-11.5-11.1-27.9-19.2-45.1-13-16.1,5.8-17.1,21.7-18.9,36.2-2.1,16.7-4.5,33.4-6.7,50.2-2.7,20.6,4.9,29.1,25.3,28.6,5.8-.1,11.6,0,17.3,0h0ZM1072.8,2879c11.2-1.1,20.9-1.2,30.3-3,9.8-1.9,16.6-7.8,16.4-18.9-.5-25.7-7.8-49.3-23-70.1-12.2-16.6-28.2-18.1-45.2-6.2-23.8,16.7-26.7,40.5-24.1,66.6,2.2,22.2,9.3,29.7,31.4,31.5,5.2.4,10.6,0,14.2,0h0ZM904.1,2832.6c.3,0,.6,0,.9,0-.3,4.8-.5,9.6-.9,14.4-1.8,20.6,2.9,30.8,16.6,35.8,17.6,6.4,35,.8,45.4-15.1,4.5-6.8,9.2-13.8,12.1-21.4,7-18.4,16.2-38.2,2.9-56.4-13.4-18.4-34.6-15.9-54.6-13.1-1,.1-2.2.1-2.8.7-5.4,5.3-13.6,9.9-15.3,16.3-3.4,12.4-3.1,25.7-4.4,38.6h0ZM1365.2,2876.8c-14,3.6-31.4,7.6-48.5,12.4-19,5.3-26,18.2-18.3,36.5,5.4,12.8,12.6,25.1,20.9,36.2,12.2,16.4,30.1,16.9,45.4,3.4,19-16.7,21.9-40.1,26.1-62.8,3.1-17.1-4.8-25.5-25.6-25.7h0ZM1178.6,2766.5c-22.6-.5-32.8,9.8-29.6,31.8,2.1,14.2,5.2,28.5,9.5,42.2,7.2,23.3,27.4,32,55,25,15.3-3.9,21.1-16.7,18.2-40-.4-2.9-.6-5.7-.8-8.6-2.3-30.7-21.9-49.7-52.2-50.4ZM1506.8,2721.1c4,17.9,5.5,35.4,22.4,43.5,15.7,7.5,25.5-6.1,35.9-15,.4-.3.8-.6,1.1-.9,34.9-29.2,36.8-44.2,10.1-79.8-15.1-20.1-36.4-20.9-49.4.7-9.3,15.6-13.6,34.3-20.1,51.6ZM1395.5,2750.2c-.8.4-1.6.7-2.4,1.1,5.6,15.1,10.2,30.7,17.1,45.2,4.8,10.2,14.2,15.6,26.4,12.3,20.4-5.5,39.4-33.7,36-54.4-1.6-9.9-4.4-19.8-8-29.1-6-15.6-23.1-25.8-39-24.4-14.5,1.3-23.9,11.8-27.4,30.8-1.1,6.1-1.8,12.4-2.6,18.5h0ZM1060.7,2925.3c-27.5.6-37.5,11.4-36.9,39.8.7,31.4,15.5,48.3,42,48,30.4-.4,46.5-18.8,45.9-52.4-.4-21.3-21.6-36-51-35.3h0ZM1624.1,2822.6c0-4.3.1-8.7,0-13-.6-19.1-10.1-25.9-27.3-17.9-10.8,5-20.6,12.3-30.7,18.9-13.9,9.1-20.1,22.6-17.3,38.6,2.1,12.2,5.4,24.8,11.2,35.6,10.8,20.1,36,19.4,47.6,0,11.4-19.2,16.8-39.9,16.5-62.2h0ZM1468.8,2923.2c14.5.1,27.3-9.2,30.7-23.5,2.9-12.1,3.6-24.8,7-36.7,6.5-23.1-11-34.4-30.7-27.8-16.1,5.4-31.2,14.6-45.7,23.6-4.3,2.7-7.3,10.4-7.8,16-1.4,17.4,29,48.3,46.6,48.4h0ZM931.1,3199.7c1.7.1,3.3.2,5,.4,2.3-6.2,6.2-12.3,6.5-18.6.8-17.3.6-34.7-.2-52-1-22.5,2.9-26.7,24.7-24.2,13,1.5,20.7-6.3,18-19-2.5-12.1-9.6-20.5-22.6-20.5-14.4,0-28.8,1.4-43.2,2.2-12.6.7-14.9,7.9-12.7,18.9,6.5,32.5,12.5,65.1,19,97.6,1,5.2,3.6,10.2,5.5,15.3h0ZM984.4,2984.6c-3-7.9-7-19.7-11.9-31.1-11.1-25.8-19.1-27.9-41.7-10.8-5.3,4-10.4,8.6-14.7,13.8-9.1,11.1-8.5,21.6.8,32.6,12.4,14.5,28.8,20.6,47.2,21.7,13.6.8,20.9-7.6,20.4-26.1h0ZM2167.9,2401.4c.5-29.6-13.1-38.4-32.8-28.3-14.4,7.4-28.4,15.8-42.2,24.3-9.6,5.9-10.4,16.9-1,23.9,9.1,6.8,19.3,13.8,30,16.4,8.1,1.9,20.9,0,26.2-5.6,9.8-10.1,15.7-24.1,19.8-30.8h0ZM859.8,2833.5c-4.8-9.6-8-20.5-14.9-28.2-5.2-5.8-15.4-10.8-22.8-10.1-11.3,1-12.3,12.2-13,22.4-.8,12.7-2.4,25.5-5.5,37.7-2.7,10.5-4.8,20.3,5.1,27.4,9.9,7,20.1,4.6,29-2.9,13.9-11.7,18.5-27.5,22.1-46.3h0ZM1133,2212.2c-2.7-4.2-5.1-12.3-9.2-13.3-5.3-1.3-13.4,1.6-17.6,5.5-5.8,5.4-8.7,13.7-13.6,20.2-13.2,17.7-27.3,34.9-39.9,53-3.2,4.7-2.4,12.2-3.4,18.4,6.2.4,12.4,1,18.6,1.1,1.7,0,3.6-1.4,5.2-2.4,23.6-15.4,40.6-36.8,54.1-61,3.2-5.7,3.6-12.8,5.9-21.4h0ZM849.8,3058.8c-.4-.8-.8-1.5-1.2-2.2-5.9,3.2-14.8,5.1-16.8,9.9-2.2,5.2.2,14.6,4,19.5,6.5,8.6,15.2,16.1,24.1,22.3,3.3,2.3,13.9.9,14.5-.9,3.6-11.6,8.2-24.3,6.4-35.6-.9-5.3-15.3-8.6-23.7-12.4-2-.9-4.7-.4-7.1-.6h0ZM1650.1,2689.4c15.4.2,31.3-16,31.4-30.6,0-10.3-4.8-16.4-15.6-16.7-15.1-.4-29.4,13.7-30,29.5-.4,11.1,4.8,17.2,14.2,17.7ZM833.7,2945.6c-.2-11.1-7.9-18.7-19.2-18.8-13.5-.2-24.6,11.9-24.1,26.7.4,11.1,5.7,18.4,17.5,18.4,12.9,0,26-13.7,25.8-26.2h0ZM510.3,1920.4c-2.6,2.5-10,6.4-11.8,12-2.6,8.1,11.9,17.3,26.5,15.7,4.6-.5,12.2-7.7,12.1-11.6-.3-13.2-11.5-14.6-26.8-16.1h0ZM1270.4,3376c.2-13.1-7.2-21-16.4-19.4-4.3.7-9.9,5.7-11,9.8-2.2,7.8,8.6,19.1,16.5,17.5,4.7-1,8.6-6.1,10.9-7.9h0ZM896.4,450.6c-9-7.6-14.3-13.2-20.8-16.6-1.4-.7-7,6.5-10.6,10.1,5.3,5.3,10,11.4,16.2,15.5,1.6,1,7.3-4.2,15.3-9Z"/>
  <path class="cls-4" d="M2257.2,384.6c9,3.7,19,5.9,26.7,11.4,24.5,17.3,45.8,37.5,64,62,15,20.2,35,37,54,53.9,9.7,8.6,16.3,16.2,15.1,30.3-1.3,15.5,6.8,22.4,22.9,23,44.9,1.7,46.8,2.3,53.7,47.6,5.8,38.3,26.7,68.6,46.7,99.8,17.9,28,35.4,56.3,51.7,85.2,6.6,11.6,12.5,24.8,13.9,37.7,3.8,36.6,23.9,62.6,50.8,84.3,17.1,13.8,22.9,30.1,22.8,51.6-.2,55,1.4,110,2.6,165.1.1,6.1,2.7,12.1,4.3,18.1,2.9,10.7,6.8,21.2,8.7,32,1.4,7.8-1.1,14.7-11.2,8.1-13.2-8.6-22.8-3-31,7.7-13.5,17.4-21.1,36.8-18.4,59.2,1.6,12.9,3.5,25.8,5.7,38.6,3,17.6-.2,32.9-15.6,43.6-16.9,11.8-24.5,28.2-24.7,48.2-.3,41-1,81.9.1,122.9.5,19.1-6,33.2-18.9,46.4-26,26.5-52.6,52.6-76.2,81-14.6,17.5-28.3,38-26.2,62.7,3.8,44.6-34.7,66.3-68.8,73.6-45.2,9.7-90.3,20-135.2,31.2-19.3,4.8-28.9,1.6-36.2-17.4-1.7-4.5-2.7-9.2-3.8-13.9-3.5-14.7-12.3-20.8-27.5-18.8-26.7,3.6-30.6.5-35.1-26.4-3.4-20-15.2-32.6-34.6-38.6-41.7-12.9-41.9-13.1-34.7-56.7,2.2-13.3-1.3-24-11-32.6-15.2-13.6-18.7-29.2-11.3-48.2,16.6-42.7,22.8-87.6,26.3-133,1.7-21.7-5.5-29-27.8-29.6-3.2,0-8.9-5.8-8.9-8.9,0-13.8-5.6-23.9-15.5-32.8-9.7-8.7-9.5-18.2-2.9-29.8,18.5-32.6,36.1-65.8,53.6-98.9,10.3-19.6,20-39.6,29.6-59.5,2.1-4.3,3.8-9,4.2-13.7.9-11.8-5.9-16.4-16.1-10.9-6.3,3.4-12.5,7.5-17.9,12.2-36.6,32.7-73.1,65.6-109.4,98.7-51.3,46.8-77.7,103-61.1,173.3,4.7,19.9,13.4,39.3,22.6,57.7,13.8,27.5,29.7,53.9,44.6,80.9,24.1,43.6,37.8,89.4,31.8,140-5.6,46.4,11.6,86,38,122.8,15.8,21.9,32.3,43.4,46,66.6,6.2,10.6,8,24.6,8.9,37.2,1.6,23,.7,46.2,1.5,69.2.7,18.2-5.5,25.6-22.9,31.3-11.4,3.7-23.4,9.3-32.1,17.3-13.3,12.4-27.4,19.3-45.4,22.7-90.9,16.9-182.5,20.8-273.9,9.3-46.1-5.8-91-21.3-136.7-30.8-25.8-5.4-44.4-16.5-52-43.3-3.2-11.2-12.7-13.5-23.5-9-8,3.4-16.1,6.5-24.1,10-18.3,8-33.2,1.7-48.4-9-31.4-22.2-63.7-43.1-95.3-65.2-15.8-11-30.8-23.2-45.8-35.2-15.4-12.4-22.5-13-33.7-1.7-21.8,21.8-26.9,36.6-13.1,49.1,35.6,32.4,46.8,76.5,60.7,119.5,21.9,68,40.7,136.9,50.2,207.8,4.3,32,5.8,64.4,8.6,96.6.3,3.4-.6,7,.3,10.1,1.8,6,4.5,11.7,6.8,17.6,4.3-5.7,10.9-10.8,12.5-17.2,5.3-21,8.8-42.5,13-63.8,5.1-25.5,26-45.3,48.5-43.5,8,.6,18.6,5.6,22.4,12,3.3,5.5,1.6,19-3.1,23.4-24.5,23.4-27.9,53.9-33,84.4-5.8,34.7-13.1,69.2-19.3,103.9-1.8,9.9-2.9,20-3.6,30.1-1,14-8.5,20.4-21.7,17.6-9.9-2.1-21.8-12.5-27.7,4.5-5.1,14.5,4.9,34.7,18.9,39.9,6.7,2.5,14,3.5,21.1,5.1,3.8.8,7.7.9,11.4,2.1,10.8,3.4,21.8,7.3,22.9,20.9,1.1,14.2-10,18.8-20.4,22.8-27,10.3-54.2,20.3-81.5,29.9-24.2,8.5-36.3-.3-35.7-26.2,1-51.1,3.2-102.3,3.6-153.4.2-30.4-2.4-60.8-2.8-91.2-.5-34.7-.2-69.4.4-104.1.2-14.2,2-28.6-11.7-38-4.4-3-11.3-6.2-15.4-4.7-3.9,1.4-7.3,8.5-8.1,13.5-1,6.4.3,13.4,1.7,20,15.1,68.3,10,136.4-2.8,204.1-1.9,10.1-9.1,20.6-16.8,27.7-12.2,11.4-17.6,22.6-13.9,39.5,7.1,31.9,13.4,64.1,17.9,96.5,1.3,9.2-2.4,21.5-8.4,28.7-8.4,10.1-20.4,17.6-31.8,24.7-21.2,13.1-48.1,3.2-51.9-21.4-5.1-33.2-9-67.4-7.1-100.8,6.1-106,15.6-211.7,22.6-317.7,1.9-28.8.3-57.9-1.2-86.7-1.1-20.2-11.3-26.7-31.3-22.3-2.8.6-5.5,1.7-8.2,2.7-25.9,9.6-34.5,4.1-45.8-20.2-18-38.8-35.9-78-58.7-114-42.8-67.3-92.9-129.2-151.8-183.5-28.8-26.5-38.4-27.7-69.9-4.6-24.6,18-49.7,34.8-81,39.4-11.6,1.7-23.8,4.8-32.4-5.5-8.8-10.5-3.4-21.7,1-32.7,5.3-13.4,10.2-27,14.3-40.8,11.6-39.3,22.2-78.9,34.1-118.1,17.5-57.6,36-115,53.5-172.6,9.4-30.8,18.1-61.9,26.7-93,5.5-20.2-.7-39.2-8.2-57.7-4.5-11.1-10.3-21.8-14.3-33.1-8.5-23.9-19.9-28.3-42.4-16.9-5.6,2.8-17.4,3.9-19.4,1-4.4-6.2-6.7-16-5.5-23.7,5.2-34.8,12-69.4,17.9-104.1,5.8-34.2,11.1-68.6,17.1-102.8,1.4-8,5.7-15.7,6.4-23.7.5-5.9-1-15.3-4.8-17.5-4.2-2.4-13.2,0-18,3.4-5.1,3.6-8.4,10.3-11.1,16.3-4.5,10-11.5,16.3-22.5,14-12.2-2.6-8.9-13.1-8.2-21.4,1.4-16.8,3.7-33.5,4.9-50.4.9-12.2-4.9-17.4-17.7-16.3-7.6.6-15.5-1.8-23.3-2.8,3.2-8.7,4.7-18.7,9.9-25.9,6-8.4,16-13.8,23-21.6,4.7-5.2,10.6-13.2,9.5-18.7-1.2-5.7-9.3-11.5-15.8-14.3-7.8-3.4-16.9-3.4-25.4-5.5-16-4-20.3-16-8.7-27.5,10.2-10.1,22.6-18,33.4-27.6,11.8-10.6,23.1-21.8,34.1-33.2,3.1-3.3,5.5-8.4,5.9-12.9.5-4.3-.7-10.5-3.6-12.8-2.8-2.2-9.4-2.1-13.1-.3-8.2,4-15.5,9.6-23.3,14.5-9.8,6.2-19.3,12.8-29.5,18.2-3.6,1.9-8.8.7-13.3.9.7-4.8-.2-10.9,2.4-14.3,6.9-9.2,14-19.3,23.4-25.5,25.7-16.8,52.5-31.7,78.9-47.5,7.3-4.4,14.9-8.7,21.5-14.1,8.2-6.7,8.8-15.2,4-24.7-13.4-26-12.4-33.4,6.5-55.7,1.9-2.2,4.4-4.2,5.3-6.8,1.6-4.7,4.3-10.8,2.5-14.3-1.9-3.6-8.6-6.8-13-6.7-10.5.3-21,3.9-31.5,3.8-6.1,0-12.1-4.8-18.1-7.5,3.4-5.8,5.4-14.9,10.4-17,18.1-7.5,37.2-12.5,55.8-18.9,7.3-2.5,17.9-4.7,20.3-10.1,2.4-5.3-3-14.7-6.1-21.8-1.6-3.8-6.3-6.1-8.6-9.7-3.1-5-8.8-12.4-7.1-15.5,2.9-5.5,10-10.4,16.2-12,8.2-2.1,17.3-1.7,25.9-.7,14.9,1.7,15.4,14.1,16.3,25.2,2.7,33.2,4.8,66.4,7.4,99.6,1,13,2.4,26,4.5,38.8,1.7,10.2,6.5,18.6,18.5,18.8,11.6.2,14.9-8.5,18-17.6,17-49.4,20.4-100.9,25-152.4,2.9-32.6,9-65,15.4-97.1,2.2-10.8,8.6-21.4,15.1-30.7,26.6-37.4,66.7-51,109.2-58.3,44.4-7.6,88.5,0,132.4,7,4.3.7,8.6,1.5,12.9,1.8,26.6,1.6,36.4-7.4,37-33.9.5-21.3,7.3-28.3,28.6-29.4,93-4.7,186.1-9.7,279.1-13.8,18.1-.8,31.2-8.1,41.9-21.7,3.3-4.2,6.7-8.2,10.4-12,14.5-14.8,31.3-18.5,48.3-7,18.2,12.3,36,26.2,51,42.1,12.8,13.6,26.5,18.7,43.8,15.9,22.4-3.7,44.7-7.9,66.9-12.6,44.7-9.5,46.2-1.7,66.4,32.5,13.3,22.5,27.5,42.1,50.3,56.2,19,11.7,33.6,28.9,41,50.9,6.2,18.3,12.4,36.5,18.9,54.7,5.4,15,32.3,34.3,48,34.8,9.7.3,16.4-4.6,17.4-13.8.8-7.4.1-15.7-2.6-22.5-11.5-28.6-23.6-56.9-36.3-84.9-8.1-17.9-16.7-35.7-27.3-52.1-4.9-7.6-15.1-11.9-23.2-17.1-7.2-4.5-16-7-22.2-12.5-3.3-2.9-4.2-10.8-3-15.7.7-3.1,7.4-7,11.1-6.8,23.8,1.8,47.7,6.1,65.5,23.1,7.7,7.3,12.2,19.5,14.8,30.3,5.4,23.2,14,27.1,32,12.1,19.3-16.1,25.6-13.5,35,9.4,11.3,27.8,31.2,49.7,54,68.7,12.5,10.4,25.9,20,39.8,28.6,5.4,3.3,13.3,2.7,20,3.9,0-7.2,1-14.5-.3-21.5-1.5-8.3-4.9-16.2-7.5-24.2,1.4-1.5,2.7-3.1,4.1-4.6h0ZM992,1135.2c-2.2.2-4.5.4-6.7.6-.4,5.5-1.2,11-1.2,16.5,0,31.9-.2,63.7.6,95.6,1,39.8-7.4,76.6-31.8,108.9-8.1,10.8-6.7,21.3,1.9,31.6,4.6,5.4,7.7,12.1,11.7,18,16.4,24.2,17,52.9,22.8,80.1,4.1,19.4-5.3,30.1-25.3,32-17.3,1.7-34.8,2.5-51.7,6-31.1,6.4-35.9,21.7-20,48.8,6.9,11.8,12.3,27.2,11.4,40.5-2.8,41.1-4.8,81.9,1.4,122.8,5.2,33.9,18.2,61.8,53.9,73.4,9.7,3.1,18.9,5.2,26.8-3.2,7.9-8.3,6.8-18,2.2-26.9-9.3-17.9-18.6-36-29.4-53.1-20.8-32.9-36.4-66-18.6-105.8,3.6-8.1,3.4-17.9,4.8-27,1.8-12,6.8-22.3,20.1-22.6,13.3-.3,17.2,10.6,19.2,21.6,3.8,20.4,6.4,41.1,11.2,61.2,1.3,5.6,9.4,14.3,12.8,13.6,6-1.2,13.7-7.7,15.3-13.4,2.8-10.4,2.5-21.9,2-32.9-.6-12.5-4-24.9-4-37.3,0-5.1,4.2-12.4,8.6-14.7,3.6-1.9,11.5.6,15.4,3.7,13,10.6,18.8,24.5,18.3,42-.5,16.7-1.8,34.7,3.3,50.1,13.8,41.5,30.2,82.1,47,122.5,6.8,16.3,17.4,30.9,26.2,46.4,6.3,11,7.4,22.3-.8,32.6-17.2,21.5-9.9,33.5,9.9,49.3,7.6,6.1,14.6,14.5,18.4,23.3,7.7,17.9-.2,26.3-19.3,24-5.4-.6-13.7.8-16.3,4.4-2.7,3.8-1.9,12.3.5,17.1,7.9,15.9,16,32.2,26.5,46.4,13.7,18.5,28.7,36.2,45.2,52.1,11.6,11.2,25.2,7.3,26.2-6.2,1.7-23.9,6.7-46.5,16.1-68.4,2.7-6.3,2.6-14.3,2.5-21.4-.5-28.9-1.3-57.9-2.3-86.8-.5-15.2-5.2-27.5-20.3-35.4-32.3-16.7-56.1-42.4-71.2-75.4-3.9-8.4-7.5-18.9-5.9-27.5,3.3-17.9,9.6-35.3,15.9-52.4,4.8-13.2,16.6-16,26.1-5.9,8.5,9,15.9,19.4,21.9,30.2,16,29,34.5,56,61.7,75.4,21.1,15,43.3,28.6,65.3,42.2,49.4,30.5,104.9,45.6,160.9,53.3,74.2,10.2,149.1,9.6,222.1-14.3,41.4-13.6,79.5-32.3,112.1-61,33-29.1,62.5-61.8,68.8-107.4,5.3-38.6,8.4-77.7,9.4-116.6,1.5-57.1-13-110.6-43.2-159.7-28-45.4-66.2-80.1-114.7-100.4-32.1-13.4-67.1-21-101.6-27-66.8-11.5-134.3-13.8-202-8.9-24.1,1.7-47.9,6.1-71.9,8.1-24.6,2-35.7-8.4-37.5-33.1-2.2-30.3,23.9-66.6,53.5-72,7.5-1.4,17.6,1.3,23.8,5.8,19.1,13.8,22.7,14.2,38.2-3.1,13.8-15.5,23.6-16.4,39.7-3.6,16,12.6,20.4,12.9,36.8,1,12-8.8,23-19.3,35.7-26.8,15.5-9.1,24.5-5,32,11.6,9.3,20.4,25.5,31.7,46.9,36.9,11.7,2.9,22.8,8,34.5,10.4,7.4,1.6,18.7,3.3,22.7-.7,10.6-10.6,20.5-23.3,26.3-37,6.2-14.7-6.5-29.8-21.8-26.8-15.4,2.9-20.7-5.2-25.9-16.6-7.3-16.2-13.2-33.7-23.5-47.9-23.2-31.9-52.1-55.4-95.3-52.6-6.1.4-17-3.2-17.6-6.6-1.2-6.1,2.2-14.5,6.3-19.9,5.2-6.7,13.8-10.6,19.6-16.9,7.4-8.2,12.6-18.8,5.1-28.9-8-10.8-16.3-1.2-24,2.7-32.8,16.5-59.7,3.7-66.2-31.5-.5-2.8-.4-6.2-1.9-8.4-4.4-6.1-9.4-11.7-14.2-17.5-4.6,5.5-11.1,10.2-13.3,16.5-4.5,13.2-5.7,27.5-10.3,40.6-1.8,5-9.1,11.2-13.9,11.1-4.6,0-12.1-6.8-13.1-11.7-2.6-12.6-4.2-26-2.7-38.7,4.7-41.2,11-82.2,16.4-123.3.9-7.1,1.9-14.6.6-21.5-1.5-8.1-7.3-11.3-15-5.8-13.9,10-23.9,22.2-23.9,40.5,0,6.7-.6,13.7-2.6,20-1.7,5.2-6,9.6-9.2,14.4-2.1-4.9-6.1-9.8-6.1-14.7.1-21.6,1.4-43.1,2.2-64.7.4-10.1,2.3-21.6-10.8-25.2-12.3-3.4-18.8,5-23,15-3.2,7.5-5.8,15.3-8.7,23-4.1,10.8-8.1,21.7-12.2,32.5-1.7-.2-3.4-.3-5.1-.5-2.8-5.8-5.1-12-8.5-17.5-2-3.3-5.8-5.6-8.7-8.3-2.3,3.3-5.6,6.3-6.8,10-2.3,6.8-2.5,14.4-5.3,21-2,4.9-6.2,11.3-10.4,12.1-4.3.8-10.8-3.4-14.3-7.2-10.4-11.3-8.8-24.5-4.3-38.1,2.6-8.1,5.2-16.8,4.6-25.1-.7-11-9.3-13.8-17-6.1-6.4,6.4-14.1,13.4-16.5,21.5-8.2,27.1-23.8,47.5-46.9,63.9-12.7,9.1-21.5,23.1-14.2,40.5,7.1,17,3.4,33.4-1.9,49.4-1.8,5.4-8.7,12.6-13.4,12.7-5.6,0-12-5.9-16.9-10.4-3.4-3.1-4.6-8.5-7.3-12.4-9.2-13.1-23.6-14.4-32.2-1-14.3,22.5-37.2,31.4-59.7,40.8-18,7.5-21.5,13.4-19.8,32.8,4.8,57.7,9.5,115.3,12.6,173.1.7,13.4-3.8,27.6-8.1,40.7-1.6,5-9.1,8.1-13.9,12.1-3.5-4.7-9.3-9-10.1-14.2-2.8-17.6-3.7-35.4-5.7-53.2-1.7-15.4-4-30.7-6.1-46h0ZM2614.1,1119.3c12.3-.7,21.2-5.2,25.4-16.7,3.4-9.4,1.3-18.6-7.8-22.3-31.6-12.9-63.2-25.9-95.7-36-9.6-3-23.4,1.1-33,6.2-18.2,9.7-34.7,22.5-51.9,34-36.4,24.2-75.2,44.2-106.5,76.3-20.8,21.4-48,36.6-72.3,54.6-18.1,13.4-37.7,25.2-53.9,40.6-12.6,12-22.5,27.6-30.6,43.1-6.6,12.7,1.3,28.6,13.2,34.5,11.3,5.6,21.6,1,30.7-13.6,2.3-3.7,5.1-7.2,6.6-11.2,8.8-24.4,27.5-40.4,47.4-55,40.5-29.6,83.1-56.6,112.6-98.6,2.8-4,8.1-6.8,12.7-9.2,26.6-13.5,53.1-27.2,80.3-39.7,15-6.9,29.5-18.5,47.7-12.8,17,5.3,33.6,12.1,50.4,18,8.1,2.8,16.4,5.2,24.6,7.7h0ZM2245.1,826.4c-.2-74.4-27.4-134.1-95.4-170.6-6.5-3.5-15.1-3-22.8-4.3-1.2,7.7-2.9,15.4-3.5,23.2-.3,3.7,1.2,7.7,2.7,11.2,10.3,24.2,22.4,47.7,43.9,63.6,29.3,21.7,35.8,50.1,28.5,83.4-8.2,37.2-16.6,74.4-26.2,111.2-6.4,24.6-15.9,48.5-22.5,73.1-2,7.5-1.9,19.2,2.6,23.7,4.3,4.4,16.2,4.3,23.5,2,15.8-5,27.5-16.2,32.3-32.6,17.5-60.2,38-119.8,37-183.8h0ZM2125.5,555.1c-4.5-5.8-8.4-15.8-15.1-18.2-7.6-2.7-19.8-1.7-26.3,3-17.6,12.6-30,30.2-30.1,53.1,0,8.2,2.1,21,7.1,23.4,7.6,3.6,21.5,3.5,27.8-1.4,18.1-14,27.5-34.8,36.5-59.9h0ZM2252.8,1575.7c-3.7-11.7-4.6-21.6-9.7-28.4-3.6-4.9-13.3-8.5-19.3-7.4-4.7.8-11.4,10-11.1,15.1.5,9.5,3.9,19.7,8.9,27.9,3.4,5.5,13.9,12.6,17.4,10.9,6.3-3,9.7-12.1,13.9-18h0ZM1622.1,2022.8c13-2.5,20-7.7,18.1-18.1-.7-4.1-6.7-7.3-10.3-10.9-5.3,6.7-11.1,13.1-15.3,20.5-.7,1.2,5.5,6.3,7.5,8.6h0ZM1749.8,1242.8c6.5,6.7,9.9,10.3,13.3,13.8,4.8-5.3,10.6-10,13.9-16.1,1.1-1.9-4.4-7.4-6.9-11.2-5.7,3.8-11.4,7.6-20.3,13.5h0Z"/>
  <path class="cls-4" d="M1218.8,3282.6c1.6,12.6,3.1,25.2,4.7,37.8-1.3.7-2.7,1.3-4,2-10.4-11.3-21.9-21.8-31-34.1-9.9-13.4-19.7-17.3-34.4-9.3-7.6,4.2-14.4,9.8-22,13.9-14.9,8.1-25.6,5.9-38.1-5.3-15.4-13.8-32.2-26.2-47-40.6-6.3-6.1-12.3-15.6-12.8-24-2.7-39.5-3.9-79-4.4-118.6,0-7.5,5.2-15.1,8.1-22.6,5.7,6.5,13.7,12.1,16.4,19.7,3.7,10.7,3.3,22.8,5,34.2,1.2,8.1,1.1,17,4.7,23.8,3.1,5.7,11,12.8,16.3,12.4,5.7-.4,12.1-8,15.7-14,2.6-4.4,1.8-11.2,1.5-16.9-.7-10.6-1.7-21.2-3.4-31.7-5.8-36.6,6.7-68.2,25.7-98.4,13.3-21.1,26.7-42.3,37.5-64.7,9.4-19.4,21.4-32.7,43.9-34.3,5.7-.4,11.3-2.4,17-3.3,26.6-4.2,34.9,3,34.9,30.3,0,16.4-3.4,31.2-15.1,44-7,7.7-13,17-17.1,26.6-4.9,11.4,1.4,18.9,13.9,18.3,4.2-.2,9.3-.6,12.5-3,23-16.8,49.3-13.1,74.1-9.8,33.8,4.5,61.1-4.5,89.5-23,46-29.9,97.2-47.2,153.6-37.9,7.7,1.3,14.5,7.6,21.8,11.5-4,7.1-7.1,15-12.4,20.9-4.7,5.2-11.9,8-17.9,12.1-13,8.9-14.3,17-7.3,30.8,5.9,11.5,10.9,23.5,15.1,35.7,5.6,16.5,24.3,26,43.5,22.2,54.4-10.8,92.1-44.8,121.3-89.2,45.9-69.5,74.8-146.6,96.7-226.4,21.5-78.6,41.9-157.5,62.1-236.5,8.3-32.7,14.1-66.1,22.1-98.9,3.9-15.9,8.4-30.9,30.6-33,6.3-.6,12-17.6,15.7-27.9,1.1-2.9-4.9-10.4-9.3-12.8-10.4-5.9-15.6-14.6-12.6-25.1,6.8-23.5,15.2-46.5,23.8-69.4,1.4-3.9,6.6-8.1,10.8-9,34.6-7.8,68.8-11,99.7,12.3,14.1,10.6,16,26.1,3,38.4-9,8.5-19.8,15.3-30.6,21.5-14.6,8.5-19.3,17.8-13.6,33.3,11.5,31.1,23,62.3,34.9,93.2,9.6,24.9,8.4,31.9-11.3,49.4-41.4,36.6-52.7,84.7-52,137.1.2,15.3,6.8,18.3,20.3,10.8,11.2-6.2,15.3,1.5,15.2,9.4,0,15.2.2,31.4-4.5,45.6-14.9,44.8-32.1,88.7-48.1,133.1-4.2,11.8-8.4,23.8-10.2,36.1-.8,5.9,2.3,15.6,6.8,18.1,3.8,2.2,12.4-2.5,18.3-5.4,6.8-3.4,12.9-8.3,19.4-12.5,1.3,8.5,5.7,18,3.2,25.2-9.6,29.2-20.9,57.9-32.4,86.4-14.8,36.7-40.5,69.2-39.1,111.9.6,16.2-14.7,26.5-31.8,22.9-51.4-10.9-101.8-5.6-151.7,8.3-36.6,10.3-73.6,19.9-109.2,33.2-34.7,12.9-67.5,30.7-101.6,45.2-11.6,4.9-24.7,8.2-37.3,8.9-19.8,1-37.1,5.6-54.2,16.8-32.6,21.2-66.4,40.6-100.6,59.2-9.2,5-21.5,4.1-32.2,6.6-11.9,2.8-24.2,4.9-35.2,9.8-14,6.2-25.2,4.2-37.6-8-9.7-9.5-20.9-17.5-31.5-26.2-2,1.1-4,2.2-6,3.4h0ZM1999.1,2467.3c-3-5-6.2-10.3-9.3-15.5-4.5,2.8-11.5,4.6-13.2,8.5-14.2,35.1-27.6,70.5-41,105.9-.8,2.1-.8,4.8-.5,7.1,1.2,9.7,9.1,13.1,16.2,6.3,12.1-11.6,24.9-22.6,27.3-41.2,1.1-8.4,5.7-16.3,8-24.6,4.2-14.7,7.9-29.6,12.4-46.5h0Z"/>
  <path class="cls-4" d="M2708.9,1211.8c2.3,4.7,5.1,9.3,6.7,14.2,10.4,32.4,19,65.5,31.2,97.2,5.3,13.8,16.6,25.8,27.1,36.9,17.8,18.8,22,37.6,3.9,55.6-40.8,40.5-44.4,90-40.2,142.3,1.3,16.4,1.9,32.9,5,48.9,2.4,12.5,8.1,24.3,12.4,36.4,3.2,9,9,17.9,9.2,26.9.9,32.8-.1,65.6-.3,98.3-.1,22.2-8.8,41.5-21.6,58.8-5.5,7.5-13.4,13.8-21.4,18.6-16.6,9.8-29.2,21.8-32,42-1.7,11.9-3.9,23.8-6.2,35.6-3.8,18.7-13.5,31.8-33.7,34.7-6.7.9-13.3,2.8-20,3-22.9.9-37,12.7-46.4,33.2-13.4,29.2-21.1,32.1-53.3,29.1-24.7-2.3-48.6-.6-71.3,12.8-19.8,11.7-41.3,20.8-62.6,29.6-19.9,8.2-30.9-.6-31.1-21.9-.3-21.4-14.3-34-31.6-43.3-25-13.5-50.7-7.6-76.3-1.9-7.5,1.7-15.4,5.9-22.4,4.7-11.3-2-25.4-4.6-32.1-12.3-11.3-13.2-19.6-29.9-25.7-46.4-6.9-18.5,5-32.9,26.4-35.9,52.5-7.4,104.8-3.7,157.3,1.3,33.9,3.2,68.3,3.4,102.3,2.1,24.6-.9,43.9-16.5,61.7-32.3,43.3-38.3,71.7-87.3,92-140.2,18.2-47.6,32.8-96.6,46.8-145.6,29.1-101.6,45.6-205.2,41.8-311.3-.7-19.3-2.1-38.5-2.8-57.8-.1-4,1.1-8.1,1.8-12.1,1.8-.4,3.6-.8,5.3-1.3h0Z"/>
  <path class="cls-4" d="M2716.9,2091.9c-1.1,4.7-1.9,9.5-3.5,14-23.4,66.2-53.2,129.2-97.1,184.4-36.6,45.9-73.3,92.1-114,134.3-35.3,36.7-75.8,68.5-114.9,101.4-19.4,16.3-27.7,15.5-48.2,2.5-16.6-10.5-20.9-26.6-7.6-41.5,16.6-18.5,11.8-35.9,3-54.7-3.9-8.3-7.6-16.7-10.2-25.4-5.6-18.3-1.1-26.8,17.3-33.2,24.6-8.6,49.2-16.8,73.9-25,16.5-5.6,23.1-17.4,19.4-36.8-3.3-17-7.6-33.9-10.6-50.9-2.5-14.5-2.2-28.9,7.3-41.6,10.8-14.5,25.4-16.7,38.2-3.8,10.4,10.5,17.6,24.3,28.6,34.1,31,27.8,69.4,26.2,84.1-16.8,13.4-39.1,22.7-79.5,33.6-119.5,4.5-16.7,7.8-33.8,12.6-50.5,6-21.1,20-25.9,38.7-14.4,11.9,7.3,24.8,13.2,36,21.4,6.6,4.8,10.9,12.9,16.2,19.5-.8.9-1.7,1.7-2.5,2.6h0Z"/>
  <path class="cls-4" d="M837.5,2639.1c-3-58.9,7.9-116.3,18.9-173.7.6-3.3.3-7.2,2.1-9.8,4.2-6.5,9.3-12.3,14.1-18.4,6.5,5.6,15.9,10.1,19,17.2,5.1,11.7,5.4,25.4,9,37.9,13.9,48.1,28.5,96.1,42.5,144.2,3.2,11.1,5,22.7,8.4,33.7,8.6,27.8,31.1,35.7,51.9,15.9,16.6-15.7,30.1-35,43.4-53.7,4.3-6.1,5.4-15.6,5.2-23.5-1.1-39.6-2.7-79.1-5-118.6-.9-14.8,4-26.3,14.1-36.4,15.3-15.4,30.4-31,45.9-46.3,16.2-16,26.6-14.3,42.7,1.2,21,20.2,24.2,42.7,14.8,68.6-19.7,54.2-21.9,111.5-30.1,167.7-2.2,15.3-5.3,30.4-8.4,45.6-4.8,22.7-16.2,31.9-38.8,37.1-68.5,15.7-138.2,12.8-207.5,15.6-4.8.2-9.7-.3-14.5-.8-19.7-1.8-26.4-7.4-27.4-28.1-1.2-25-.3-50.2-.3-75.3h0Z"/>
  <path class="cls-4" d="M1313.4,2837.3c-5.8,0-11.6-.1-17.3,0-20.4.4-27.9-8.1-25.3-28.6,2.2-16.7,4.5-33.4,6.7-50.2,1.8-14.5,2.9-30.4,18.9-36.2,17.2-6.2,33.6,1.9,45.1,13,9.2,9,15.2,23.1,18.3,36,3.1,12.8,1.4,26.9.7,40.3-.9,17.5-9.4,25-26.8,25.3-6.8.1-13.5,0-20.2,0v.4h0Z"/>
  <path class="cls-4" d="M1072.8,2879c-3.6,0-8.9.4-14.2,0-22.2-1.7-29.2-9.2-31.4-31.5-2.6-26.2.3-49.9,24.1-66.6,17.1-12,33.1-10.4,45.2,6.2,15.2,20.8,22.5,44.4,23,70.1.2,11.1-6.6,17-16.4,18.9-9.4,1.8-19.1,2-30.3,3h0Z"/>
  <path class="cls-4" d="M904.1,2832.6c1.2-12.9,1-26.3,4.4-38.6,1.7-6.4,9.9-11,15.3-16.3.6-.6,1.8-.5,2.8-.7,20-2.8,41.1-5.3,54.6,13.1,13.3,18.2,4,38-2.9,56.4-2.9,7.6-7.6,14.5-12.1,21.4-10.4,15.8-27.8,21.4-45.4,15.1-13.7-5-18.4-15.2-16.6-35.8.4-4.8.6-9.6.9-14.4-.3,0-.6,0-.9,0h0Z"/>
  <path class="cls-4" d="M1365.2,2876.8c20.8.2,28.7,8.5,25.6,25.7-4.2,22.7-7.1,46.1-26.1,62.8-15.3,13.5-33.2,13-45.4-3.4-8.3-11.1-15.5-23.5-20.9-36.2-7.7-18.2-.7-31.1,18.3-36.5,17.1-4.8,34.5-8.8,48.5-12.4h0Z"/>
  <path class="cls-4" d="M1178.6,2766.5c30.3.7,49.9,19.7,52.2,50.4.2,2.9.5,5.8.8,8.6,2.9,23.3-2.9,36.1-18.2,40-27.6,7-47.8-1.7-55-25-4.3-13.7-7.4-28-9.5-42.2-3.2-22,7-32.3,29.6-31.8Z"/>
  <path class="cls-4" d="M1506.8,2721.1c6.5-17.3,10.7-36,20.1-51.6,13-21.6,34.3-20.8,49.4-.7,26.7,35.6,24.8,50.6-10.1,79.8-.4.3-.8.6-1.1.9-10.4,9-20.2,22.6-35.9,15-16.9-8.1-18.3-25.6-22.4-43.5Z"/>
  <path class="cls-4" d="M1395.5,2750.2c.9-6.2,1.5-12.4,2.6-18.5,3.5-19,13-29.5,27.4-30.8,15.9-1.4,33,8.8,39,24.4,3.6,9.4,6.4,19.2,8,29.1,3.4,20.7-15.6,48.9-36,54.4-12.2,3.3-21.6-2.1-26.4-12.3-6.9-14.5-11.5-30.1-17.1-45.2.8-.4,1.6-.7,2.4-1.1h0Z"/>
  <path class="cls-4" d="M1060.7,2925.3c29.5-.7,50.7,14,51,35.3.6,33.7-15.5,52-45.9,52.4-26.5.3-41.3-16.6-42-48-.6-28.3,9.4-39.1,36.9-39.8h0Z"/>
  <path class="cls-4" d="M1624.1,2822.6c.3,22.3-5.1,43-16.5,62.2-11.5,19.5-36.8,20.2-47.6,0-5.8-10.8-9.2-23.4-11.2-35.6-2.7-16,3.5-29.5,17.3-38.6,10-6.6,19.8-13.9,30.7-18.9,17.2-8,26.7-1.2,27.3,17.9.1,4.3,0,8.7,0,13h0Z"/>
  <path class="cls-4" d="M1468.8,2923.2c-17.5-.1-47.9-31-46.6-48.4.4-5.6,3.4-13.3,7.8-16,14.6-9,29.6-18.1,45.7-23.6,19.8-6.6,37.2,4.6,30.7,27.8-3.3,11.9-4.1,24.6-7,36.7-3.4,14.3-16.2,23.6-30.7,23.5h0Z"/>
  <path class="cls-4" d="M931.1,3199.7c-1.9-5.1-4.5-10-5.5-15.3-6.5-32.5-12.5-65.1-19-97.6-2.2-11,.1-18.2,12.7-18.9,14.4-.8,28.8-2.3,43.2-2.2,12.9,0,20.1,8.5,22.6,20.5,2.6,12.7-5,20.5-18,19-21.9-2.5-25.8,1.7-24.7,24.2.8,17.3,1,34.7.2,52-.3,6.3-4.2,12.4-6.5,18.6-1.7-.1-3.3-.2-5-.4h0Z"/>
  <path class="cls-4" d="M984.4,2984.6c.5,18.4-6.8,26.9-20.4,26.1-18.4-1.1-34.8-7.2-47.2-21.7-9.3-10.9-9.8-21.5-.8-32.6,4.2-5.1,9.3-9.8,14.7-13.8,22.6-17.1,30.6-15,41.7,10.8,4.9,11.4,8.9,23.2,11.9,31.1h0Z"/>
  <path class="cls-4" d="M2167.9,2401.4c-4.1,6.7-9.9,20.7-19.8,30.8-5.3,5.5-18.1,7.5-26.2,5.6-10.7-2.6-20.9-9.6-30-16.4-9.5-7-8.6-18.1,1-23.9,13.8-8.5,27.8-16.9,42.2-24.3,19.7-10.1,33.3-1.3,32.8,28.3h0Z"/>
  <path class="cls-4" d="M859.8,2833.5c-3.6,18.8-8.2,34.6-22.1,46.3-9,7.6-19.1,10-29,2.9-9.9-7-7.8-16.9-5.1-27.4,3.1-12.3,4.7-25.1,5.5-37.7.7-10.2,1.8-21.4,13-22.4,7.4-.7,17.6,4.3,22.8,10.1,6.9,7.7,10.1,18.6,14.9,28.2h0Z"/>
  <path class="cls-4" d="M1133,2212.2c-2.3,8.6-2.7,15.8-5.9,21.4-13.6,24.2-30.5,45.7-54.1,61-1.6,1-3.5,2.5-5.2,2.4-6.2,0-12.4-.7-18.6-1.1,1-6.2.2-13.7,3.4-18.4,12.6-18.1,26.7-35.3,39.9-53,4.9-6.5,7.8-14.9,13.6-20.2,4.2-3.9,12.3-6.7,17.6-5.5,4.1,1,6.5,9,9.2,13.3h0Z"/>
  <path class="cls-4" d="M849.8,3058.8c2.4.1,5.1-.4,7.1.6,8.4,3.8,22.8,7.1,23.7,12.4,1.8,11.3-2.8,24-6.4,35.6-.5,1.8-11.2,3.2-14.5.9-8.9-6.2-17.5-13.7-24.1-22.3-3.8-5-6.2-14.3-4-19.5,2-4.8,11-6.7,16.8-9.9.4.8.8,1.5,1.2,2.2h0Z"/>
  <path class="cls-4" d="M1650.1,2689.4c-9.4-.5-14.6-6.6-14.2-17.7.6-15.8,14.8-29.9,30-29.5,10.8.3,15.7,6.4,15.6,16.7-.1,14.6-15.9,30.8-31.4,30.6Z"/>
  <path class="cls-4" d="M833.7,2945.6c.2,12.6-12.9,26.2-25.8,26.2-11.9,0-17.2-7.2-17.5-18.4-.5-14.9,10.5-26.9,24.1-26.7,11.3.2,19.1,7.8,19.2,18.8h0Z"/>
  <path class="cls-4" d="M510.3,1920.4c15.3,1.6,26.5,2.9,26.8,16.1,0,4-7.5,11.2-12.1,11.6-14.6,1.6-29-7.6-26.5-15.7,1.8-5.6,9.1-9.5,11.8-12h0Z"/>
  <path class="cls-4" d="M1270.4,3376c-2.3,1.8-6.2,7-10.9,7.9-7.9,1.6-18.7-9.8-16.5-17.5,1.2-4.1,6.8-9.1,11-9.8,9.2-1.6,16.6,6.4,16.4,19.4h0Z"/>
  <path class="cls-4" d="M896.4,450.6c-8,4.9-13.7,10.1-15.3,9-6.1-4.1-10.9-10.2-16.2-15.5,3.7-3.6,9.2-10.9,10.6-10.1,6.5,3.4,11.8,9,20.8,16.6Z"/>
  <path class="cls-2" d="M992,1135.2c2,15.3,4.3,30.6,6.1,46,2,17.7,2.9,35.6,5.7,53.2.8,5.1,6.6,9.5,10.1,14.2,4.8-4,12.3-7.1,13.9-12.1,4.2-13.1,8.8-27.2,8.1-40.7-3.1-57.8-7.7-115.4-12.6-173.1-1.6-19.4,1.8-25.3,19.8-32.8,22.6-9.4,45.4-18.3,59.7-40.8,8.5-13.4,23-12.1,32.2,1,2.8,3.9,3.9,9.3,7.3,12.4,4.9,4.5,11.3,10.5,16.9,10.4,4.7,0,11.6-7.3,13.4-12.7,5.3-16,9.1-32.5,1.9-49.4-7.3-17.3,1.5-31.4,14.2-40.5,23-16.5,38.6-36.8,46.9-63.9,2.5-8.1,10.2-15.1,16.5-21.5,7.7-7.7,16.3-4.9,17,6.1.5,8.2-2,17-4.6,25.1-4.4,13.6-6.1,26.8,4.3,38.1,3.5,3.8,10.1,8,14.3,7.2,4.2-.8,8.4-7.2,10.4-12.1,2.8-6.6,3-14.2,5.3-21,1.2-3.7,4.5-6.7,6.8-10,3,2.7,6.7,5,8.7,8.3,3.4,5.5,5.7,11.6,8.5,17.5,1.7.2,3.4.3,5.1.5,4.1-10.8,8.1-21.7,12.2-32.5,2.9-7.7,5.4-15.5,8.7-23,4.3-10,10.7-18.3,23-15,13.1,3.6,11.2,15.1,10.8,25.2-.8,21.6-2.1,43.1-2.2,64.7,0,4.9,3.9,9.8,6.1,14.7,3.2-4.8,7.4-9.1,9.2-14.4,2.1-6.3,2.6-13.3,2.6-20,0-18.4,10-30.6,23.9-40.5,7.7-5.5,13.5-2.4,15,5.8,1.3,6.9.3,14.4-.6,21.5-5.4,41.1-11.8,82.1-16.4,123.3-1.4,12.7.2,26.1,2.7,38.7,1,4.9,8.4,11.7,13.1,11.7,4.7,0,12.1-6.1,13.9-11.1,4.6-13.1,5.8-27.4,10.3-40.6,2.2-6.3,8.7-11.1,13.3-16.5,4.8,5.8,9.9,11.4,14.2,17.5,1.5,2.2,1.4,5.6,1.9,8.4,6.5,35.2,33.5,48,66.2,31.5,7.7-3.9,16-13.5,24-2.7,7.5,10.1,2.4,20.7-5.1,28.9-5.8,6.3-14.4,10.2-19.6,16.9-4.1,5.4-7.5,13.8-6.3,19.9.7,3.3,11.6,6.9,17.6,6.6,43.2-2.8,72.2,20.8,95.3,52.6,10.3,14.2,16.2,31.6,23.5,47.9,5.2,11.4,10.5,19.5,25.9,16.6,15.3-2.9,28.1,12.1,21.8,26.8-5.8,13.7-15.7,26.3-26.3,37-3.9,3.9-15.2,2.2-22.7.7-11.7-2.4-22.8-7.5-34.5-10.4-21.4-5.3-37.7-16.5-46.9-36.9-7.5-16.6-16.5-20.7-32-11.6-12.7,7.5-23.7,18-35.7,26.8-16.4,11.9-20.8,11.6-36.8-1-16.1-12.7-25.9-11.8-39.7,3.6-15.4,17.3-19.1,16.9-38.2,3.1-6.2-4.5-16.3-7.1-23.8-5.8-29.7,5.4-55.8,41.7-53.5,72,1.8,24.7,13,35.1,37.5,33.1,24-2,47.9-6.4,71.9-8.1,67.6-4.8,135.2-2.6,202,8.9,34.4,5.9,69.5,13.6,101.6,27,48.5,20.3,86.7,55,114.7,100.4,30.3,49.1,44.7,102.5,43.2,159.7-1,38.9-4.1,78-9.4,116.6-6.3,45.6-35.8,78.3-68.8,107.4-32.6,28.7-70.7,47.4-112.1,61-73,23.9-147.9,24.5-222.1,14.3-56-7.7-111.6-22.8-160.9-53.3-22.1-13.6-44.2-27.2-65.3-42.2-27.2-19.4-45.7-46.4-61.7-75.4-6-10.8-13.4-21.3-21.9-30.2-9.6-10.1-21.3-7.2-26.1,5.9-6.3,17.2-12.6,34.6-15.9,52.4-1.6,8.5,2,19.1,5.9,27.5,15.2,33,38.9,58.7,71.2,75.4,15.2,7.9,19.8,20.2,20.3,35.4,1,28.9,1.9,57.9,2.3,86.8.1,7.2.2,15.1-2.5,21.4-9.4,22-14.4,44.5-16.1,68.4-1,13.6-14.6,17.5-26.2,6.2-16.5-15.9-31.5-33.7-45.2-52.1-10.5-14.2-18.6-30.5-26.5-46.4-2.4-4.8-3.2-13.3-.5-17.1,2.6-3.6,10.9-5,16.3-4.4,19.1,2.2,26.9-6.1,19.3-24-3.8-8.8-10.8-17.2-18.4-23.3-19.9-15.9-27.2-27.9-9.9-49.3,8.2-10.2,7.1-21.6.8-32.6-8.8-15.4-19.4-30.1-26.2-46.4-16.8-40.4-33.2-81-47-122.5-5.1-15.4-3.8-33.3-3.3-50.1.5-17.4-5.3-31.3-18.3-42-3.9-3.2-11.8-5.6-15.4-3.7-4.4,2.3-8.7,9.6-8.6,14.7,0,12.4,3.4,24.8,4,37.3.6,11,.9,22.5-2,32.9-1.6,5.8-9.3,12.2-15.3,13.4-3.4.7-11.5-8-12.8-13.6-4.8-20.2-7.4-40.8-11.2-61.2-2-10.9-5.8-21.9-19.2-21.6-13.4.3-18.3,10.7-20.1,22.6-1.4,9.1-1.2,18.9-4.8,27-17.8,39.8-2.2,72.9,18.6,105.8,10.8,17.1,20.1,35.1,29.4,53.1,4.7,9,5.7,18.7-2.2,26.9-8,8.4-17.2,6.3-26.8,3.2-35.8-11.5-48.8-39.5-53.9-73.4-6.2-40.9-4.2-81.7-1.4-122.8.9-13.3-4.5-28.7-11.4-40.5-15.9-27.2-11.1-42.4,20-48.8,16.9-3.5,34.4-4.4,51.7-6,20-1.9,29.4-12.6,25.3-32-5.7-27.2-6.3-55.9-22.8-80.1-4-5.9-7.2-12.6-11.7-18-8.7-10.3-10.1-20.8-1.9-31.6,24.4-32.3,32.8-69.1,31.8-108.9-.8-31.8-.6-63.7-.6-95.6,0-5.5.8-11,1.2-16.5,2.2-.2,4.5-.4,6.7-.6h0ZM1264.2,1708.4c1.1,6,1.6,9.8,2.4,13.6,6,29.7,29.5,40,54.4,47.5,12.5,3.8,23.4-7.8,20.7-22.1-5-26.1-16.3-49.5-37.6-66.4-11.4-9.1-24.8-6.3-32,6.4-3.9,6.9-5.7,15.1-7.9,21.1h0ZM1321.9,1087.1c2,0,3.9,0,5.9,0,1.2-5.2,3.2-10.3,3.4-15.5,1.4-37,2.8-74,3.5-111,.3-17.3-.4-34.6-1.7-51.9-.4-5.9-3.9-11.7-5.8-17-11.5,8.1-21.6,13.8-29.8,21.5-4.3,4.1-7.8,12-7.2,17.8.7,7.2,4.2,15.6,9.3,20.6,21.7,21,21.7,46.8,19.5,73.8-1.2,14.8-1.5,29.8-1.3,44.6,0,5.7,2.7,11.4,4.2,17.1h0ZM1260.8,1035.2c-7.2-7.2-11.3-15-16.3-15.7-9.8-1.3-13.1,7.8-11.4,15.7,1.3,5.9,6.8,10.9,10.4,16.4,4.9-4.7,9.8-9.3,17.3-16.4h0ZM1311.9,1319.8c1.4-2.3,2.9-4.7,4.3-7-4.1-1.3-8.5-4.2-12.3-3.6-2.8.4-6.8,5.5-6.7,8.3.1,3,4.4,5.9,6.9,8.8l7.7-6.5h0Z"/>
  <path class="cls-2" d="M2614.1,1119.3c-8.2-2.6-16.5-4.9-24.6-7.7-16.8-5.9-33.4-12.6-50.4-18-18.2-5.7-32.7,5.9-47.7,12.8-27.1,12.4-53.6,26.2-80.3,39.7-4.6,2.3-9.8,5.1-12.7,9.2-29.6,42.1-72.2,69-112.6,98.6-19.9,14.6-38.6,30.6-47.4,55-1.4,4-4.3,7.6-6.6,11.2-9.1,14.6-19.4,19.2-30.7,13.6-11.9-5.9-19.8-21.8-13.2-34.5,8.1-15.6,18-31.2,30.6-43.1,16.2-15.4,35.8-27.2,53.9-40.6,24.3-18,51.5-33.2,72.3-54.6,31.3-32.2,70.1-52.2,106.5-76.3,17.2-11.4,33.8-24.3,51.9-34,9.6-5.1,23.4-9.2,33-6.2,32.5,10.1,64.1,23.1,95.7,36,9.2,3.7,11.3,12.9,7.8,22.3-4.2,11.5-13.1,16.1-25.4,16.7h0Z"/>
  <path class="cls-2" d="M2245.1,826.4c1,64-19.5,123.6-37,183.8-4.8,16.4-16.5,27.6-32.3,32.6-7.3,2.3-19.2,2.4-23.5-2-4.5-4.5-4.6-16.2-2.6-23.7,6.6-24.6,16.1-48.5,22.5-73.1,9.6-36.8,18.1-74,26.2-111.2,7.3-33.3.8-61.7-28.5-83.4-21.5-15.9-33.6-39.4-43.9-63.6-1.5-3.5-2.9-7.5-2.7-11.2.6-7.8,2.3-15.5,3.5-23.2,7.6,1.4,16.3.9,22.8,4.3,68.1,36.4,95.3,96.2,95.4,170.6h0Z"/>
  <path class="cls-2" d="M2125.5,555.1c-9,25.1-18.4,45.9-36.5,59.9-6.3,4.9-20.2,5-27.8,1.4-5.1-2.4-7.1-15.3-7.1-23.4,0-22.8,12.4-40.5,30.1-53.1,6.5-4.6,18.6-5.7,26.3-3,6.7,2.4,10.6,12.4,15.1,18.2h0Z"/>
  <path class="cls-2" d="M2252.8,1575.7c-4.2,5.9-7.6,15-13.9,18-3.5,1.7-14-5.3-17.4-10.9-5.1-8.1-8.5-18.3-8.9-27.9-.2-5.1,6.4-14.2,11.1-15.1,6-1.1,15.7,2.5,19.3,7.4,5.1,6.8,6,16.8,9.7,28.4h0Z"/>
  <path class="cls-2" d="M1622.1,2022.8c-2-2.2-8.2-7.4-7.5-8.6,4.3-7.3,10.1-13.7,15.3-20.5,3.6,3.6,9.6,6.8,10.3,10.9,1.9,10.5-5.1,15.6-18.1,18.1h0Z"/>
  <path class="cls-2" d="M1749.8,1242.8c8.8-5.9,14.6-9.7,20.3-13.5,2.5,3.8,7.9,9.3,6.9,11.2-3.3,6.1-9.1,10.8-13.9,16.1-3.4-3.6-6.8-7.1-13.3-13.8h0Z"/>
  <path class="cls-2" d="M1999.1,2467.3c-4.5,16.9-8.2,31.8-12.4,46.5-2.4,8.3-7,16.2-8,24.6-2.3,18.6-15.2,29.6-27.3,41.2-7.1,6.8-15,3.4-16.2-6.3-.3-2.3-.3-5,.5-7.1,13.4-35.4,26.8-70.8,41-105.9,1.6-4,8.6-5.7,13.2-8.5,3.2,5.3,6.3,10.5,9.3,15.5h0Z"/>
  <path class="cls-4" d="M1264.2,1708.4c2.2-6,4-14.1,7.9-21.1,7.2-12.7,20.6-15.5,32-6.4,21.3,17,32.6,40.3,37.6,66.4,2.8,14.3-8.2,25.9-20.7,22.1-24.9-7.5-48.4-17.9-54.4-47.5-.8-3.8-1.3-7.6-2.4-13.6h0Z"/>
  <path class="cls-4" d="M1321.9,1087.1c-1.5-5.7-4.1-11.4-4.2-17.1-.2-14.9,0-29.8,1.3-44.6,2.2-27,2.2-52.8-19.5-73.8-5.1-5-8.7-13.4-9.3-20.6-.5-5.8,2.9-13.7,7.2-17.8,8.2-7.7,18.3-13.4,29.8-21.5,1.9,5.3,5.4,11,5.8,17,1.3,17.2,2,34.6,1.7,51.9-.7,37-2.1,74-3.5,111-.2,5.2-2.2,10.3-3.4,15.5-2,0-3.9,0-5.9,0h0Z"/>
  <path class="cls-4" d="M1260.8,1035.2c-7.5,7.1-12.4,11.8-17.3,16.4-3.6-5.4-9.1-10.4-10.4-16.4-1.7-7.9,1.6-17,11.4-15.7,5,.7,9.1,8.4,16.3,15.7h0Z"/>
  <path class="cls-4" d="M1311.9,1319.8c-2.6,2.2-5.1,4.4-7.7,6.5-2.5-2.9-6.8-5.8-6.9-8.8-.1-2.8,3.9-7.9,6.7-8.3,3.8-.6,8.2,2.2,12.3,3.6-1.4,2.3-2.9,4.7-4.3,7h0Z"/>
  <g class="cls-3">
    <text class="cls-1" transform="translate(1243.9 1528.7)"><tspan x="0" y="0">FF7518</tspan></text>
  </g>
  <path class="cls-2" d="M3337.6,203.1"/>
</svg>